<svg id="level5" xmlns="http://www.w3.org/2000/svg" viewBox="0 0 1512.3 126.4"><defs><style>.cls-1{fill:#c18c5d;stroke:#2e1a1a;stroke-width:5px;opacity:0.89;}.cls-1,.cls-2{stroke-miterlimit:10;}.cls-2{fill:#6eb257;stroke:#507255;}</style></defs><rect class="cls-1" x="2.5" y="2.5" width="1507.3" height="121.39"/><path class="cls-2" d="M92.2,89.7a34.2,34.2,0,0,1,2.6-18.1,32,32,0,0,0,12.4,14.1,30.5,30.5,0,0,0,.7-12.4,21.3,21.3,0,0,0,6.1,7.3,12.5,12.5,0,0,1,5.5-9.6l4.3,11.7a21.6,21.6,0,0,0,6.9-9.4c6.1,2.8,7.9,8.8,8.2,15.2-.5,1.9-3.1,2.2-5.1,2.1C119.6,90,105.5,89.3,92.2,89.7Z"/><path class="cls-2" d="M241.8,75.8c-49.1-37.6,11.8-66.7-5.1-2.9,6.9-63,51.4-22.4-.5,3.2-2.3-11.6-15-19.9-26.2-23.9-2.7.1-4.3,3.4-4.3,6.1C207.7,76.2,226.5,74.6,241.8,75.8Z"/><path class="cls-2" d="M52.7,42.8c-14.7-16.1,16-17.1,5.8-1.3,12-9.4,16.4,11.3,0,6.6,3.7,3.6-1.4,8.7-5.7,7.3C45.9,54.4,43.7,42.6,52.7,42.8Z"/><path class="cls-2" d="M354.2,48.3c-14.2-1.3-18.3,18.2-20.4,29,3.1,23.3,21.1-21.6,17.2-29C350.1,98.8,379.2,95.4,354.2,48.3Z"/><path class="cls-2" d="M406.7,88.4a18.5,18.5,0,0,0-6.8,5.3,5.7,5.7,0,0,0,6.6-3.7c-1.8,8.7,11.6,5.5,6.2-1.4C415.9,79,395.9,81.1,406.7,88.4Z"/><path class="cls-2" d="M295.5,33.9a279.4,279.4,0,0,0,31.7,1.8A48.7,48.7,0,0,1,321.4,23l-3.1,7.2-1.8-5.8a24.2,24.2,0,0,0-1.3,5.3,20.1,20.1,0,0,0-7.2-6.1,6.7,6.7,0,0,0,.9,5.8,7.8,7.8,0,0,0-5.8-5.9,4.7,4.7,0,0,0,1.9,6.1c-1.3-4.2-14.9-7.5-7.4-1.5l-5.9,2.2C292.7,33.2,296.1,35.1,295.5,33.9Z"/><path class="cls-2" d="M463.9,49.5a28.5,28.5,0,0,1-3.6-16.7l7.9,15.1a29,29,0,0,0-.2-10.6,17.7,17.7,0,0,1,3.2,8.5c1.6-3.9,3.4-7.7,5.3-11.5a57.3,57.3,0,0,1-.7,13.1,21.2,21.2,0,0,1,7.7-9.8,11.7,11.7,0,0,1-3.3,10.2l2.2,2.2C476.8,53.7,469.3,51.3,463.9,49.5Z"/><path class="cls-2" d="M560.7,80.8c1-7.3,46.9-39.8,39.8-20.7-2.1,1.4-5.6-.7-5.3-3.3,6,5.8-6.1,10.3-5.4,2,6.1,6.4-6.6,12.4-7.6,3.6,7.3,5.4-3.5,11.2-6.9,4.6,6,4.7-3.6,12.6-5.7,5,6.2,3.8.1,10.3-4.7,5.3,8.3,3.6-4.1,11.7-2.9,2.7,2.7,3.9-3.1,6.5-6.5,5.9-2.7-3.5.8-10.6,4.9-6.9-9.1-3.5-1.2-11.2,2.9-2.8-5.1-5.6,4.8-13.6,5.1-4.9-2.8-5,4.3-12.1,6.9-5.7-3.8-6.3,6.1-12.5,7-4.5-1.5-5.1,6.3-8.9,6.1-2.8-2.3-5.1,5.8-9.2,5.6-2.9-1.6-4.6,5.7-6.3,6.3-1.5"/><path class="cls-2" d="M690.4,84.3c-12.6-16.8,1.5-30.8,3.3-14.9-.6,4.5,2.2,14.4-3.7,15.5C703.8,41.9,725.7,74.8,690.4,84.3Z"/><path class="cls-2" d="M694.4,69.6c-.2-6.6.8-14.2,5-19.5C709.6,52.3,697.3,65.3,694.4,69.6Z"/><path class="cls-2" d="M689.1,87.8c-1.8-5.8-5.1-13-12-13.5C676.5,81.3,681.8,88.4,689.1,87.8Z"/><path class="cls-2" d="M689.1,86.4c5.9-3.3,13.2-13.1,20.3-10.1,4.6,8.8-11,9.9-16.3,12.6C692.1,89.3,690.3,89.1,689.1,86.4Z"/><path class="cls-2" d="M801.4,76.7C787.2,67.9,780,48.9,785,32.8,803.1,36.8,814.8,62.5,801.4,76.7Z"/><path class="cls-2" d="M799.3,78.3c-12,1.5-26.4-.9-33-12.1C757.7,39.2,777.4,41.5,799.3,78.3Z"/><path class="cls-2" d="M778.4,65c3.3,2.7,5.7,6.3,9,9S795.5,78.2,778.4,65Z"/><path class="cls-2" d="M794.6,49.6c4.6,6.5,12.4,19.3,5.8,26.1"/><path class="cls-2" d="M918.4,82.2v15c-4.5-25.3,22.3-34.6,11.8-17.9-8.5,10.3-11.9,12.2-12.7-3.1-.7-8.1-11.7-9.5-12.4-.8C904.7,81.4,913.9,90.4,918.4,82.2Z"/><path class="cls-2" d="M856.6,40c-7.7-11.4,13.2-14.2,3.8-2a5.3,5.3,0,0,1,9,1.4,24.4,24.4,0,0,1-8,2.2c4.7,1.9,1,8.6-3.4,6.7S851.8,39.5,856.6,40Z"/><path class="cls-2" d="M499.4,88.9c-9.2-21,16.9-18.1.3.7,1.8-4.9,18.1-9.7,11.4-1C507.6,91.4,501.3,93.6,499.4,88.9Z"/><path class="cls-2" d="M396.4,38.1c-21.5-19,9.1-25.5-.6-2.8C403,10.9,417.7,31.6,396.4,38.1Z"/><path class="cls-2" d="M395.6,38.3c-4.6.6-15-3.2-9.9-8.3C387.4,29.5,389.2,31.3,395.6,38.3Z"/><path class="cls-2" d="M625.1,91.5l-1-1.9c-6.5,2.4,1.5,10.1,2.1,3,2.5,6.5,9.7-1.9,2.9-2.1C633.8,85.1,621.8,83.4,625.1,91.5Z"/><path class="cls-2" d="M576.5,22.7c-5.6-1.7-9.5,6.7-1.8,3.6-2.1,7.6,10.1,3.8,3.6-.5,9.6-.2,1.1-12.3-3-2.8C575.5,22.7,575.6,22.4,576.5,22.7Z"/><path class="cls-2" d="M150.5,43.4a15.9,15.9,0,0,0-4.9,5.1,3.8,3.8,0,0,0,5.8-2.2c-1.3,1.6,2.8,3.5,4.2,3.1,3.2-.7,2-5.6-1.2-4.7,1.9.2,2.4-2.2,1.4-3.5C154.3,37.6,147.8,40.2,150.5,43.4Z"/><path class="cls-2" d="M1017,88.6c-7.9-7.4-19.7-21-12.1-31.8,13.9,2.9,16.3,22.6,9.9,33.5C1018.2,12,1064.5,57.9,1017,88.6Z"/><path class="cls-2" d="M1135.5,68.8c-18.8-3.6-21.5-5.8-26.2-24.5,14.2-4.9,22.1,11.5,26,22.7-2.6-12.7.4-28.4,15.1-30C1162.3,46.6,1146.4,65.2,1135.5,68.8Z"/><path class="cls-2" d="M1077.5,99.3a65,65,0,0,1-1.7-15.2,51.6,51.6,0,0,0,7.7,9.1,26,26,0,0,0,1.1-7.9c2.7,1.1,2.4,6.4,5.3,6.5s2.8-4,4.8-5.7a16.4,16.4,0,0,0,5.1,7.3l1.8-6.2a14.6,14.6,0,0,0,6.1,7.5l1.5-3.3C1125.2,104.8,1087,101.4,1077.5,99.3Z"/><path class="cls-2" d="M1292.9,53.2c-2.9-8.6-5.4-17.4-7.5-26.2a42.4,42.4,0,0,1,11.3,14.9c-2-15.3,3-10.5,4.4,1a21.1,21.1,0,0,1,6.3-11.7,16.3,16.3,0,0,1-1.5,12.8,11.2,11.2,0,0,1,9.2-8.2,19.9,19.9,0,0,1-4.7,11.9,89.7,89.7,0,0,1,12.4-5.1C1317.7,53.7,1303.4,59.3,1292.9,53.2Z"/><path class="cls-2" d="M1249.7,89.6c-6-8.3-25.1-23.1-17.5-33.5,2.7-1.8,6.4-.1,9.1,1.9C1250.9,64.2,1258.7,80.6,1249.7,89.6Z"/><path class="cls-2" d="M1422.2,83c3-16.3,6.9-34.2,20.4-43.7,8.3-7,21.7-3.6,21.1,8.3C1461.5,67.3,1440.5,81.7,1422.2,83Z"/><path class="cls-2" d="M1425.2,81.5a44.7,44.7,0,0,0,18.6-21.2"/><path class="cls-2" d="M1241.7,67a23.1,23.1,0,0,1,8.3,22l-.2-1.7"/><path class="cls-2" d="M1362.4,76.6c-3.3-16.7,12.5-6,.4-.9-5.9-15-13.2-.7-.6,1.2-10.1-6.6-12.9,5.4-.8,1.8-2.5-.3-5.3,3.3-5.2,5.8,2.4,1.7,5.1-2.7,4.9-4.9.5,11.6,9.9,4.8,2.6-1.5C1369.9,90.6,1377.8,71.5,1362.4,76.6Z"/><path class="cls-2" d="M1198.6,89.9c-3.8-1.3-1.1-6.9,1.4-8.2s7.7,5.5,3.7,7.6c8.1-3.9,11.8,9.5.7,5.5C1208.6,102.4,1189,98.3,1198.6,89.9Z"/><path class="cls-2" d="M221.2,65.2A42.3,42.3,0,0,0,236.4,73a.9.9,0,0,0-.6-1.3"/><path class="cls-2" d="M231.7,55a27.8,27.8,0,0,1,4,15.4"/><path class="cls-2" d="M251,55.9c-4.2,5.1-5.9,13.6-13,15.5"/><path class="cls-2" d="M249.8,99.6a24.8,24.8,0,0,0-8.2,4.3,4.2,4.2,0,0,0,6.4-1c1.7,6.3,10,.2,4.1-2.5,4.1,0,2.5-6-1.2-5.2S243.1,102.3,249.8,99.6Z"/></svg>