<svg id="level4" xmlns="http://www.w3.org/2000/svg" viewBox="0 0 1512.3 126.4"><defs><style>.cls-1{fill:#c18c5d;stroke:#2e1a1a;stroke-width:5px;opacity:0.89;}.cls-1,.cls-2{stroke-miterlimit:10;}.cls-2{fill:#6eb257;stroke:#507255;}</style></defs><rect class="cls-1" x="2.5" y="2.5" width="1507.3" height="121.39"/><path class="cls-2" d="M694.5,85.8c13-16.7,28.7-34.9,49.6-41,23.3-4.1,17.3,19.2,7.2,30.5-12.1,11.6-31.4,9.8-47.1,12.5C691.1,87.7,703.9,80,694.5,85.8Z"/><path class="cls-2" d="M702.1,80.1l34.7-21"/><path class="cls-2" d="M112.2,81.1c-17.1-9.9-38.3-32-23.8-51.9,23,3.3,26.1,31.6,22.7,50.5C110.9,78.7,110.6,77.8,112.2,81.1Z"/><path class="cls-2" d="M94.2,43.3l16.3,34.8Z"/><path class="cls-2" d="M1289.7,71.6c3.5-16.9,5.1-42.8,23.5-49.4,11.4-1.8,10.4,24.4,6.9,30.9-5.3,10.8-18.5,14.5-30.2,17C1289.4,69.2,1290.1,68,1289.7,71.6Z"/><path class="cls-2" d="M1308.8,36c-3.3,10-5.8,22.7-12.8,30.2C1295.2,66,1295.9,64.4,1308.8,36Z"/><path class="cls-2" d="M1358.3,84.8c20.6-5.8,42.9-20.8,64-9.8a4,4,0,0,1,2.9,4.4c3.2,17.2-15.4,14.3-26.7,15.8s-30.6,2.5-37.2-9.3C1361.4,84.8,1363.2,84.3,1358.3,84.8Z"/><path class="cls-2" d="M1365.2,82.3c10.9,1.4,35.3,7.3,42.8-1.2"/><path class="cls-2" d="M1436.5,38.7a40.6,40.6,0,0,1,8-12.8c2,4,1.4,12.1-4.6,11,12.9-6.4,19,7.5.9,3.4,2.3-.4,3.9,3,2.6,5-6.3,7-16.3-4.5-12.1-11.5C1432.5,34.7,1434.3,34.8,1436.5,38.7Z"/><path class="cls-2" d="M1126.6,88.3a76.2,76.2,0,0,1,4.5-24.1,112,112,0,0,0,5.9,18.9l3.4-15.2,2.7,11.1a45,45,0,0,0,5.5-13.2l1,17.5a38.3,38.3,0,0,0,7.3-15.7c-.8,8.5,7.5,21.9,9.6,6.2,1.6,3.5,5.2,11.9.3,13.8C1154.7,89.3,1137.1,93.9,1126.6,88.3Z"/><path class="cls-2" d="M860.6,44.6a196.8,196.8,0,0,0,37.6.1,11.5,11.5,0,0,1-3.8-11.3,29.5,29.5,0,0,0-5.5,8.5l-2.5-7.7-1.7,5.3a11.2,11.2,0,0,0-6-6.8,22.2,22.2,0,0,0-.1,7.7,8.7,8.7,0,0,0-5.8-4.3,11.6,11.6,0,0,0,1.1,4.8,60.3,60.3,0,0,0-8.5-4.9,14.3,14.3,0,0,0,5.1,5.8l-9.9-3.1,5,3.2L855.1,43a19.4,19.4,0,0,0,4.8,5.5C860.4,47.7,861.1,47.1,860.6,44.6Z"/><path class="cls-2" d="M974.1,71.3l-3.6-11.4c6.6-3.7,12.8,6,6.7,10.5,1.5-2.4,5.5-2.1,6.9.3,3,6.5-7.5,9.6-9.3,2.9.6,6.3-8.8,8.3-10.8,2.3C962.5,71.6,967.1,67,974.1,71.3Z"/><path class="cls-2" d="M1042.4,59.4c6.2-10.4,16.9-21.3,29.2-22.8,4.4,4.6-4.5,7.5-7.4,3.1,5.5,2.5-1.2,9-4.5,4.3,4.4,3.4-2.8,7.5-5.8,3.7,5.2,2.6-.4,10-4.4,5.6,4.8,2.1-.4,8.4-3.7,4.4,5.3,3.5-.4,6.8-4.1,3.6-6.9,5.6-7.3-9.2-.8-3.1-7.1-.8-1.5-10.4,1.9-4.2-4.7-.7-1-7.2,2.6-4.2-2.7-3.7,2.9-7.8,5.5-4-5.1-3.4,2.8-9.1,4.4-3.2-2.3-4.4,4.5-7.7,6.7-3.3-3-4.9,5.2-8.8,7-3.2"/><path class="cls-2" d="M847,93.9c-18.6-16.5,12.1-30.5,1.3-2.6,7.4-21,27.8-7.6,4.3,1.9a4.9,4.9,0,0,1-6.6-2.4C824.9,75.9,827.1,98,847,93.9Z"/><path class="cls-2" d="M176.6,61.5l48.9-4.2c-5.9-2.3-.2-12.9-6-15.3a15.1,15.1,0,0,0-1.2,9.1c-3.9-1.4-7.8-2.9-11.6-4.5a6.2,6.2,0,0,1,2.2,4.7,40.3,40.3,0,0,1-11.8-4.6,30.5,30.5,0,0,1,3.4,7.3,27.5,27.5,0,0,1-12.8-3.1,23.9,23.9,0,0,0,7.8,5.6,153.5,153.5,0,0,1-16.6-.6l5.9,3.3C182.8,59.8,166.8,60,176.6,61.5Z"/><path class="cls-2" d="M206.7,89.7c18.4-32.2,26.8,1,0,2,.3-26.4-27.5-11.6-.6,1.8C205.9,93.4,204.7,92.9,206.7,89.7Z"/><path class="cls-2" d="M49.9,87.9c-13.2-22.6-23,.2-1,3.9-2.6-5.6.1-24.7,8.1-14.9C59.3,82.8,55.2,90.3,49.9,87.9Z"/><path class="cls-2" d="M43,31.8a24.8,24.8,0,0,0-8.1,2.6c1.4,3,6.5,3,7.9,0-4.9,6.1,4.5,9.5,7.9,4.2,1.9-3.4-1.1-8.4-5-8.3,5.7-3.7-2.7-10.1-5.8-4.3C37.6,28.1,41,37.2,43,31.8Z"/><path class="cls-2" d="M280.6,42.9c-5.5-1.3-8.3-10.1-6.4-15,7.6-4.4,10.1,9,6,13.7C288.4,11.4,305.2,39.2,280.6,42.9Z"/><path class="cls-2" d="M276.9,31.7l3.2,8.2"/><path class="cls-2" d="M200.3,81.9a64,64,0,0,0,3.9,8.4"/><path class="cls-2" d="M216.3,83.2a16.5,16.5,0,0,1-8.9,6.7"/><path class="cls-2" d="M368.6,88.8a4.1,4.1,0,0,1,.8,1.9c.2-20.9,13.9-39.6,12.8-59,7.7-1.7,8.2,10.8.3,9.7,15.5-4.2,9.9,7.1-.8,4.9,10.4.5,6,7.5-2.2,6.5,7.9-1.3,4.5,11.2-1.6,6.1,8.1,2.3,1.9,14.1-3.3,7.1,6.1,2.9,3.5,15.3-2.6,8.8,6.3,2,4.5,14.1-1.4,7.9,9.2,5.2-3.8,15.6-8.3,6.2-2.8-3.6,3-8.6,4.4-3.7-8.4-7.1,4.5-15.9,2.6-4.8-9.1-6.9,1.4-22.9,2.7-7.9-11-10.4,3.4-21.6,1.4-8.9-2-2.8-5.6-12.6-.8-13.2,2.7.9,5.9,3.1,4.9,5.7a26.5,26.5,0,0,1-3.7-14,11.4,11.4,0,0,1,6.2,4.8c-6.3-4.9-6.9-20.6,1.5-7.3"/><path class="cls-2" d="M471.6,89.6l34.7-1.2c-3.8-1.5-2.4-7.9-5.5-10.7a10.5,10.5,0,0,1-3,5.2,6,6,0,0,1-1.2-3.6l-2.5,3.6a12.5,12.5,0,0,0-3.6-4.9,12.1,12.1,0,0,0-.5,4.6,11.8,11.8,0,0,0-5.2-4.7,13.5,13.5,0,0,0-.5,6,9.3,9.3,0,0,0-6.6-3.2,4,4,0,0,0,1.9,2.7l-11.8-2.9c2.7.3,5,5,1.3,5.1A7.7,7.7,0,0,0,471.6,89.6Z"/><path class="cls-2" d="M317.8,84.5c-3-1.7-5.6-7.5-1-8.6s5.5,5.8,1.8,7.4c1.8-5.9,10.1-1.1,4.8,2.9-1.3,1.1-6.8.8-5.6-1.7,2.9,6-7.2,6.9-6.4.8C311.9,83,315,81.8,317.8,84.5Z"/><path class="cls-2" d="M150.4,87.4c-7.7-13.7,12.3-8.9,3-.7.8-3,7.7-2.9,8.5.1s-10.4,6.6-9.7.9c2.3,2.6-.9,6.6-3.9,5.4C143.2,91.8,148,82,150.4,87.4Z"/><path class="cls-2" d="M466.4,56.4c-8.6-4.4-17.7-13.3-14.7-23.7,11.3-.3,19.6,12.5,15,22.8C467.7,3.1,505.8,41.3,466.4,56.4Z"/><path class="cls-2" d="M459.9,42.4A25.4,25.4,0,0,1,465.3,55"/><path class="cls-2" d="M475.5,38.8c-1,5.8-5.1,13-9.4,15.6"/><path class="cls-2" d="M579.5,68c-9.1,1.9-16.4,17-11.9,25,11.6.1,19.7-16.1,11.5-24.1,4.6,7,4.9,26.9,18.2,21.3C603.4,81.1,583.9,68.5,579.5,68Z"/><path class="cls-2" d="M579.4,72a48.2,48.2,0,0,0-6.7,12.7C573.1,84.6,573.5,84.5,579.4,72Z"/><path class="cls-2" d="M581.7,69.8a22.8,22.8,0,0,1,8.5,11.7"/><path class="cls-2" d="M619.1,41.8c-3.4-2.9-8.1-9.7-3.2-13.1C621,29.8,622.2,37.1,619.1,41.8Z"/><path class="cls-2" d="M665.4,49.8c-1.6-5.1-.2-14.2,6.7-12.8C679.8,40.9,671.7,50.8,665.4,49.8Z"/><path class="cls-2" d="M646,71.8c-4.7,2.1-7.5,9.6-3.3,13.4C650.1,88.2,646.8,74.8,646,71.8Z"/><path class="cls-2" d="M525.4,53.4c-3.4-4.8-6.7-18.5,2.5-17.3C533.4,40.2,531.1,49.4,525.4,53.4Z"/><path class="cls-2" d="M1229.3,48.2c-11.9-2.4-7.8,11.3-.8,4-3,1.1.3,6.4,2.5,7,4.7,2.4,8.9-4.9,3.7-6.9C1246.6,49.1,1230.1,36.5,1229.3,48.2Z"/><path class="cls-2" d="M1264.1,88.1c-13.5.9-12,11.8-2.6,3.9-5.5,5,8.1,7.5,6,1.2C1274.3,91.9,1266.9,82.8,1264.1,88.1Z"/><path class="cls-2" d="M1051.8,99.9c-2.7-8.1,4.4-22.9,13.9-16.5C1070.5,91.6,1058.9,98,1051.8,99.9Z"/><path class="cls-2" d="M923.2,99.2c-10.8-1.7-18.8-16.9-11.6-25.7,10.3,2,14.8,16,9.3,24.6,2.1-7.4,1.2-16.5,5.6-22.8,5.9-4.3,15.4,2,13,9.2S928.4,96.3,923.2,99.2Z"/><path class="cls-2" d="M996.5,40a43,43,0,0,1-4-14.1c6.6.6,8.6,10,2.8,13.2C1003.6,19.1,1013.9,36.3,996.5,40Z"/><path class="cls-2" d="M793.9,45.8c-14.8-19.5,13.4-15.3-.8.9,3.1-11.1,18.3-13.5,11.3-3C802.1,45.7,795.6,49.3,793.9,45.8Z"/><path class="cls-2" d="M773.3,91l22.5.5a30.4,30.4,0,0,1-8.5-13.2,17.6,17.6,0,0,1-3.1,9.9L782,80.4c.4,5-6.9,6.3-8.2,1.6C770.2,84.4,778.9,88.3,773.3,91Z"/><path class="cls-2" d="M1143,36.7c-16.2-18.4,14-14.9.4-1.3,8.7-15.1,21.9,4.2,4,.1,5.7,6.8-10.5,7-11.6,1.8C1137.1,34.7,1139.8,32.9,1143,36.7Z"/></svg>