<svg id="level2" xmlns="http://www.w3.org/2000/svg" viewBox="0 0 1512.3 126.4"><defs><style>.cls-1{fill:#c18c5d;stroke:#2e1a1a;stroke-width:5px;opacity:0.89;}.cls-1,.cls-2{stroke-miterlimit:10;}.cls-2{fill:#6eb257;stroke:#507255;}</style></defs><rect class="cls-1" x="2.5" y="2.5" width="1507.3" height="121.39"/><path class="cls-2" d="M54.9,50.9c-8.5-4-21.7-14.3-14.6-24.5,5.3-2.9,12.4,3.9,14.2,8.8s-.6,11.3-.9,16.8c-29.9-19.6-14.9,28.9-.5-1a11.6,11.6,0,0,0,14.7,5.9C68.9,45.4,49,41.6,54.9,50.9Z"/><path class="cls-2" d="M183.9,71.4C175.6,75,165.5,82.8,167.7,93c11.1,3.2,17.2-11.3,15.4-20.5C183.6,107.5,208.5,81.9,183.9,71.4Z"/><path class="cls-2" d="M288.1,51.9c-5.1-7.4-7.5-24.7,5-24.8,6.6,6.7,1.6,18.6-5.6,23.6C287.5,50.6,287.5,50.4,288.1,51.9Z"/><path class="cls-2" d="M285.4,51.1c-7.3-46.5-31-9.7,1.4-.9C286.4,50.1,286,50,285.4,51.1Z"/><path class="cls-2" d="M278.8,32.6c.6-5.6-2.4-17.5,6.4-17.2C292.4,20.8,289.9,24.3,278.8,32.6Z"/><path class="cls-2" d="M286.5,54.1c13.2-14.3,27.3-8,8.9,3.8C292.1,59,288.1,58.3,286.5,54.1Z"/><path class="cls-2" d="M285.3,54.2c-3.3-1.2-12.2-10.3-12.6-2.7C274.3,56.6,283.9,60.3,285.3,54.2Z"/><path class="cls-2" d="M151.6,51.2c-6.7-6.9-13.6-21.3-3.6-27.9C158.7,28.6,155.8,42.3,151.6,51.2Z"/><path class="cls-2" d="M149.8,51.1c-1.7-4.4-19-27.8-21.6-18.1C124.2,47.5,138.6,49.9,149.8,51.1Z"/><path class="cls-2" d="M416,82.4c14.1-33.8,56.3-29.7,38.6-9.4-10,12.1-18.3,10.9-31.7,10.9C420,85.3,419.4,85.3,416,82.4Z"/><path class="cls-2" d="M417.8,79.9c-.9-10.2,5.9-29-7.9-32.6C398.6,55.9,404.5,74.8,417.8,79.9Z"/><path class="cls-2" d="M372.3,95.7c-22-10.7-15.6,12.2.6.4-.2,17.8,16.3,1.5-1.1-.7,4.7,2.1,10.5-6.7,4.5-8.2-3.8.9-6.1,5.5-5.7,9.3C370.8,95.4,371,94.3,372.3,95.7Z"/><path class="cls-2" d="M75.9,96.5c-5.3-3.8-13.8,1.7-11.9,8.1,4.9,2.6,9.4-3.8,10.2-8.2-3.1,17.9,17.8,7.3.3-1.4C83.8,80.2,58.1,86.1,75.9,96.5Z"/><path class="cls-2" d="M539.2,37.8c-5.2-1.5-5.2-10.2.8-9.8s3.7,9-.9,10.6c-2.7-3.9-9.2.2-5.6,3.7,2,1.4,7.8-.9,6.8-3.6a12.4,12.4,0,0,0,4.2,10.1C548,44.6,546,37.1,539.2,37.8Z"/><path class="cls-2" d="M619.2,77.6c4.7-24.4,33.3-35.6,55.9-34.7a6.5,6.5,0,0,1,4.8,8.6C670,73.9,639.4,75.4,618.1,80,617.8,79.6,617.5,79.2,619.2,77.6Z"/><path class="cls-2" d="M737.1,88.4c-6.2-14.7-16.2-44.7,7.3-17.2-9.9-26.9,26.5-26.1,3.2-2.5,6.3-4.7,14.4-9.8,22.4-6.8-2.7,7.5-12.9,9.3-19.7,11.4,16.4-1.9,4.9,10.9-4.6,7.9,4.6-1,12.7,1.7,9.9,7.5-2.9,3.3-13.7,6.1-13.8-.6.7,5.8-7.7,8.2-12.2,7.2-5.2-3.3-7-19,2.1-13.2C724,72,728.8,61.6,737.1,88.4Z"/><path class="cls-2" d="M862,58.4c-15.1-23.8,17.3-43.9,1-6,2.5-4.5,5.4-9.4,10.4-10.6,1.1,5-3.1,9.2-7.1,11.7C881.2,47,872.1,60.4,862,58.4Z"/><path class="cls-2" d="M865.6,104.2c-4-3.3-8.5-7.7-8-13.3,2.6,2,5.1,4.1,7.6,6.3a8.6,8.6,0,0,1,.2-7.2c3,1,1.9,5.2,3.5,7.3a17.6,17.6,0,0,1,4.5-6.9,12.5,12.5,0,0,1,.5,5.8c4.7-6.9,13.9-4.9,4.2,1.8a35.6,35.6,0,0,1,8.5-1.7C882.7,103.9,872.2,102.5,865.6,104.2Z"/><path class="cls-2" d="M518.2,100.5c-11.7-7.7-19.8-27.4,1-12.1-5.3-6.6,2.7-9.8,4.5,3,2.1-3.9,9.2-10,5.2-1a10.9,10.9,0,0,1,7.6-2.3,11,11,0,0,1-4.5,5.7c4-2,13.5-1.5,13-7.6,5.7,4.1-3.5,8.7-1.6,12.7C535.6,102.8,524.9,105.8,518.2,100.5Z"/><path class="cls-2" d="M990.5,55.4c-9-7.4-1.6-18,5.1-6.5-.4-11.1,18-7.9,6.9.1C1021.9,37.4,1018.7,58.6,990.5,55.4Z"/><path class="cls-2" d="M1041.9,102c-20.6-22.3,6-37,.7-4.9a15.7,15.7,0,0,1,11.9-14.9c.9-.4,1.7.2,1.9,1.2C1058.7,92.5,1048.7,99.2,1041.9,102Z"/><path class="cls-2" d="M953.7,94.7c-15.9-1.1-29.7-17.8-26-33.6C941.1,55.5,954.6,84.3,953,96,952.9,95.8,952.9,95.6,953.7,94.7Z"/><path class="cls-2" d="M952.8,96.6c-.4-10.6-2.7-38.3,11.3-39.7C971.3,69.7,961.8,86.5,952.8,96.6Z"/><path class="cls-2" d="M1235.5,69c-5-10.6,5.1-22.8,10.9-31.4C1273.2,9.6,1272.5,53.6,1235.5,69Z"/><path class="cls-2" d="M1233,68.6c-13.8-6.2-19.3-54-5.5-43.1a31.6,31.6,0,0,1,8.5,25.7"/><path class="cls-2" d="M1147.4,100.3c-14.1-17.8-1.8-30.4,1.6-13.8a10.6,10.6,0,0,1,8.4-9.4,9.1,9.1,0,0,1-2.7,7.1c3.1-2.4,13.1-6.3,9.4,1.3-3.2,2.9-8.7,2.6-11.4,6.5s.4,9.4-5.5,8.6C1147.1,100.2,1147,99.7,1147.4,100.3Z"/><path class="cls-2" d="M1107.7,52.9c-19.3-9-6.2-35.7,2.6-9.5C1111.7,50.1,1104.4,50.9,1107.7,52.9Z"/><path class="cls-2" d="M1108.3,50.6c2-7.2,6.2-21.8,15.9-19.3C1130.4,39.1,1115.5,51.2,1108.3,50.6Z"/><path class="cls-2" d="M1103.6,51.1c-5.9,2.4-14.7,2.3-16.1-5.5-.8-2.6-.7-6.3,1.9-7.1C1095.8,39,1093.6,37.6,1103.6,51.1Z"/><path class="cls-2" d="M1324.1,80.9c-10.4-.9,0,12.6.7,1.6,4.9,7,9-2.2,1.7-2.7,3.5.4,2.3-4.7-.8-4.4S1320.3,78.7,1324.1,80.9Z"/><path class="cls-2" d="M1360.7,45.2c-15-14.8,11.4-19.3,2-4.2,2.4-3.7,6.3-8.2,11.1-6.6a46.3,46.3,0,0,0-5,9.3c3.1-4.2,11.5-2.2,7.2,3.3C1372.5,50.4,1361.1,50.8,1360.7,45.2Z"/><path class="cls-2" d="M1421.4,95.2c-9.7-8.9-5.2-32.2,1.3-9a13.7,13.7,0,0,1,4.9-11.6l.5,9.2,4.7-7.9,1.4,9.6a13.7,13.7,0,0,1,7-6c.3,1.7-2.1,2.4-3.3,3.7s.7,6.8,3.8,5.1C1438.7,96.1,1427.2,95.1,1421.4,95.2Z"/><path class="cls-2" d="M1456.4,48c-10.5-16.4,24.3-41,20.2-18.1-3.4,6.7-12.9,19.9-21.2,18.1-1-.1-2.3.5-2.2,1.5C1453.7,48.8,1454.3,48.2,1456.4,48Z"/><path class="cls-2" d="M1455.5,47.6c-13.9-38.5-33.8-10.2-.4-1.2C1455.1,46.5,1455.1,46.6,1455.5,47.6Z"/><path class="cls-2" d="M1454.2,49c-4.9,1.6-17.1,6.5-6.3,9.6C1452.2,58.8,1458.1,53,1454.2,49Z"/><path class="cls-2" d="M1250.9,93.5c-2.4-11.7,10.6-14.9,5.9-3.4-.4.6-1.3,1.1-1.6.5,5.5-8.3,12.7,6,3.2,3.5,3.7-.6,4.4,4.8,1.3,6.2s-9.1-.4-8.5-4.5c-2,5.3-9.7,1-6.5-3.6C1245.9,90.4,1248.7,90,1250.9,93.5Z"/><path class="cls-2" d="M621.3,76c11.3-10,26.2-14.6,37.9-23.6"/><path class="cls-2" d="M416.7,82.7a107.3,107.3,0,0,1,25.4-13.1,1.1,1.1,0,0,0-1.1.6"/><path class="cls-2" d="M410,59l4.4,18.2"/><path class="cls-2" d="M135,42.2a22.9,22.9,0,0,0,12.4,5.2"/><path class="cls-2" d="M150,36.4a77.5,77.5,0,0,1,.7,9.6C150.4,46.1,150.2,46.3,150,36.4Z"/><path class="cls-2" d="M182.2,73.8a31.8,31.8,0,0,0-4.9,8.1"/><path class="cls-2" d="M1252.2,44.3c-5.4,8.5-11.1,16.7-17.3,24.6l1.2-1.5"/><path class="cls-2" d="M1228,41.8a148.7,148.7,0,0,0,3.1,24.9"/><path class="cls-2" d="M1469,95.6a24.2,24.2,0,0,1,5.9-8.2,4.9,4.9,0,0,1-1.5,6.5,12.5,12.5,0,0,1,8.2-2.9,5.3,5.3,0,0,1-4.7,6.2c15.8-1.1-4.3,11.5-7.6-1.1,1.9,2.8-2.2,6.1-5,4.9C1459,98.3,1463.1,89.7,1469,95.6Z"/></svg>