<svg id="level1" xmlns="http://www.w3.org/2000/svg" viewBox="0 0 1512.3 126.4"><defs><style>.cls-1{fill:#c18c5d;stroke:#2e1a1a;stroke-width:5px;opacity:0.89;}.cls-1,.cls-2{stroke-miterlimit:10;}.cls-2{fill:#6eb257;stroke:#507255;}</style></defs><rect class="cls-1" x="2.5" y="2.5" width="1507.3" height="121.39"/><path class="cls-2" d="M1438.5,53.5c-13.2-4.9-12.7-25.4.8-29.6,23-3.9,14,23.7-1.1,28.8-6.9-7.9-37.7-16.7-23.5,2.9,5.5,6.1,26.5,9.6,25.3-2.1-4.1,21.5,21.7,30.9,21,6.2C1458.7,52.5,1450.5,48.5,1438.5,53.5Z"/><path class="cls-2" d="M80.4,66C65.4,59.9,53,40.5,58.5,24.5,78.4,22,89.1,53.3,78.2,68.2c-8.2-11-36.3-16.1-40.5.9,1.2,20.7,33.1,12.8,40.7.2-2.5,9.1-5.7,31.1,9.3,28.7C97.9,90.6,90.8,69.7,80.4,66Z"/><path class="cls-2" d="M54.7,70.5a51.8,51.8,0,0,0,20-1.2"/><path class="cls-2" d="M71.2,42.1a89.8,89.8,0,0,1,5.4,26.6A25.6,25.6,0,0,1,81.1,85"/><path class="cls-2" d="M169.3,95.5a68.4,68.4,0,0,1-3.2-16.2,80.2,80.2,0,0,1,13.1,10.1,45.8,45.8,0,0,1,0-11.7l5.1,8.8,5.3-9.5,3.3,8.6,8.8-10.1a30.8,30.8,0,0,1,.4,10.9c5.9-4.8,9.6,5.3,3.6,8.2C194.6,97.6,179.3,93.6,169.3,95.5Z"/><path class="cls-2" d="M234.4,51.1c-26-31.5,15.6-22.4-.6-.4C248.9,8.2,272.1,48.6,234.4,51.1Z"/><path class="cls-2" d="M460.8,65.9"/><path class="cls-2" d="M344.5,86.5c-15.8-5.8-29.5-50.1-7.1-51.6,14.3,11.9,11,34.6,4.7,51.1Z"/><path class="cls-2" d="M335.4,54.3a112.3,112.3,0,0,0,4.9,30.4"/><path class="cls-2" d="M442,89.7c-6.9-23.8-11.3-45.1,16.7-55.8,2.4.2,4.1,2.5,5.1,4.8C472.6,59,452.8,75.1,442,89.7Z"/><path class="cls-2" d="M448.8,55.9a84.1,84.1,0,0,0-8,29.1"/><path class="cls-2" d="M390.6,81.5c-38.9-68.9,28.6-66.9-1.4-2.6,3.5-11.7,5.3-28.2,15.9-35.4,23.5,4.8-5,31.8-15.6,37.2C385,74,370.8,29.9,362.4,51.8c1.8,14,14.6,25.3,27.2,30.2C390.7,86.2,389.6,91,390.6,81.5Z"/><path class="cls-2" d="M284.3,94.9a39.1,39.1,0,0,0-15.1,3.4c2.2,4.2,9.5,3.8,11.2-.6,4.7,11.2,16.8-3,5.1-6,9.4-3.6-1-14.9-6.5-6.8-2,2.8-1,9.6,2.8,10.1C282.2,94.6,281.4,93.8,284.3,94.9Z"/><path class="cls-2" d="M548.4,44.1l-6.9,1.1c.4,2.8,5.3,3.3,6.2.6-3.8,1.7-3.1,8.5.9,9.4s7.6-4.8,4.9-8c6.4,1.6,5.9-8.3-.1-8.4C549.7,38.3,545.8,41.4,548.4,44.1Z"/><path class="cls-2" d="M442.6,84c7.7-6.3,17.2-20.1,28.2-12.8,1.4.9,1.5,2.6.9,4.1-2.4,11.9-16.7,11.9-25.8,16.2C441.9,93.8,435.1,90.5,442.6,84Z"/><path class="cls-2" d="M440.4,88.5a87.7,87.7,0,0,0,17.7-11.1"/><path class="cls-2" d="M336.9,82.2c-4.5-12.3-29.6-15.3-14.7-1.3,6.5,4.1,13.8,7.8,21.6,8.4C343.9,89.3,341.5,91.2,336.9,82.2Z"/><path class="cls-2" d="M323.8,77.8a138.2,138.2,0,0,0,19.1,9.9"/><path class="cls-2" d="M592.4,87c-4.8-.2-11.8,1.1-12.4,6.9a13.6,13.6,0,0,0,9.7-1c-.4-1-2.2-.5-2.4.6.1,2.7,3.5,4.7,5.9,5.1s6.3-5.1,2.1-6c7.7,3.8,10.1-9.2,1.9-10C594.1,82.3,591,84.3,592.4,87Z"/><path class="cls-2" d="M665.3,50.9a18.7,18.7,0,0,1-3.6-9.4c3.5-1.3,9.7-.6,9.1,4.2,3.8-7.4,16.4-1.9,8.2,3.2,7.4,3.8-1.6,13.5-5.8,6.2C671.6,65.7,657.6,57.1,665.3,50.9Z"/><path class="cls-2" d="M746.9,45.4c-2.6-5.1-4-16.4,4.1-16.4C756.6,31.5,754.2,48,746.9,45.4Z"/><path class="cls-2" d="M745.5,45.3c-1-4.7-.8-16.9-8.6-12.6C733.1,38.1,739.7,45.9,745.5,45.3Z"/><path class="cls-2" d="M751.2,45.6c2-5.1,11-16.8,12.1-4.8C763.4,45,749.8,51.2,751.2,45.6Z"/><path class="cls-2" d="M735.4,88.2c-22.4-12.3,3.7-26.4-.1-1.6-2.2-13.1,16.3-22.7,8.6-5.3-2.5,2.5-6.7,3.3-8.2,6.4,15.7-15.3,14.5,8.3.6,2.6-2.9-1.9-4.5-6.1-8.2-6.7C714.5,85,740.5,99.8,735.4,88.2Z"/><path class="cls-2" d="M734.1,77c-.6-4.4-4.9-12.8,0-15.5C740.4,62.9,739.8,73.3,734.1,77Z"/><path class="cls-2" d="M132.5,46.6c-6.7-9,8.5-9.8,4.1-.6,1.7-2.1,5.6-.3,6.7,1.6s-7.6,5.3-8.4,2.3C135.8,61.2,117.8,49.3,132.5,46.6Z"/><path class="cls-2" d="M1442.5,36.3a48.8,48.8,0,0,0-3.8,13.4"/><path class="cls-2" d="M1426.2,53.3a67.2,67.2,0,0,0,10,2.8C1437.2,56.3,1438.7,56,1426.2,53.3Z"/><path class="cls-2" d="M1440.6,54a14.7,14.7,0,0,1,8.1,10.3"/><path class="cls-2" d="M833.9,49.5q23.1,1.2,46.2,1.2a44.3,44.3,0,0,0-3.8-13.8,24.5,24.5,0,0,1-3.7,7.4c-3.7-11.6-5.1-9.1-10.9-.5-.4-7.7-5.8-10.1-6.4-1.5a10.4,10.4,0,0,0-5.2-8,15.1,15.1,0,0,0-.9,7.3,16.5,16.5,0,0,0-7.1-8.7,14.7,14.7,0,0,0,.9,9.7c-3.3-1.5-9.9-6.6-11.7-.9-.4,3.5,5.3,4.3,6.3,7.6-1.5,0-3.5.9-4.8.3S833.1,48.8,833.9,49.5Z"/><path class="cls-2" d="M1144.7,101.1a231.6,231.6,0,0,0,43.2,2.6A84.2,84.2,0,0,0,1183,88a23,23,0,0,0-3.4,11.4c-2.2-2.5-1.1-7.7-4.3-8.5-4.8-.7-4.5,6.4-7.4,8.5a11,11,0,0,0-4.2-8.9,10.5,10.5,0,0,0,.4,5.8,40.3,40.3,0,0,0-12-6.6,10.9,10.9,0,0,0,2.5,6.4,39.1,39.1,0,0,0-10.6-5.8,11.4,11.4,0,0,0,8.9,4.9,28.8,28.8,0,0,1-13.9,2.6C1137.6,101.1,1146.5,104.2,1144.7,101.1Z"/><path class="cls-2" d="M1263.5,66.7c-3.1-15-2.5-38.2,16-41.9a3.1,3.1,0,0,1,3.9,2c4,8.4,1.9,19.4-4.9,25.9C1273.5,57.4,1266.3,59.8,1263.5,66.7Z"/><path class="cls-2" d="M1274,37a70.9,70.9,0,0,0-10.5,26.3"/><path class="cls-2" d="M1331.8,92.2c24.5-24.5,23,7.4,13-3.1,5.9,4.8-7.5,11.2-8,3.2,6.8,1.8-3.2,8.4-5.6,3C1330.2,93.5,1331.3,90.7,1331.8,92.2Z"/><path class="cls-2" d="M1248.3,91.8c5.2-16.8,33.8-15.9,41-1.7C1277,92.7,1258.1,103.7,1248.3,91.8Z"/><path class="cls-2" d="M1249.6,89.6a44.8,44.8,0,0,0,20.5-2.7"/><path class="cls-2" d="M1338.3,33.9c-9.8-5.9-9.6,8-1.5,3.2-6.6,9.5,13.5,7.2,4.5-1.4,10.8-3-5.3-12.5-4.7-.4C1336.8,34.7,1336.9,34.1,1338.3,33.9Z"/><path class="cls-2" d="M944.7,52.9a55.5,55.5,0,0,1,.8-14.1c6.3-.4,8.9,8.5,3.5,11.7,15.7-7.9,12.5,14.7.4,4,4.3,6.6-6.7,11.8-9.3,4.5A4.4,4.4,0,0,1,944.7,52.9Z"/><path class="cls-2" d="M851.2,91.8a22.1,22.1,0,0,1-4.3-6.6c3.3-2.8,8.1,1.5,5.7,5.1.1-2.9,4.7-4.1,7.3-3.7,3.8,2.6-1.1,6.6-4.4,6.2,5.4,2-1.6,6.6-5,4.9S849,91.8,851.2,91.8Z"/><path class="cls-2" d="M1032.3,81.4c-9-2.9-13.4-15.7-10.7-24.1,8.9-.7,17.4,17.8,8.7,23.2,8.8-39.5,37.8-5.7.4.9C1030.7,81.5,1030.7,81.6,1032.3,81.4Z"/><path class="cls-2" d="M967,96c-17.9-4-7.3-17.5,2.9-.5C968.5,96.2,966.9,96.2,967,96Z"/><path class="cls-2" d="M1084.9,39.4c1-30.1,29.6-18.9,0-1.2A24.2,24.2,0,0,1,1102,29C1103.3,37.7,1091.8,42.7,1084.9,39.4Z"/><path class="cls-2" d="M1134.2,54.3c.8-20.1,15.6-4.7,4.3-.4,11.6-6.7,10.6,10.4-.5,4.1,1.3,3-1.8,6.7-5,6.4-5.5.3-7.2-12.1-1.2-9.3-.8,2.3-4.6,2.2-5.8.1C1123.7,49.3,1133.5,45.3,1134.2,54.3Z"/><path class="cls-2" d="M1183.6,38.6c.1-22.3,16.3-6.6,3.4-3.9,12.6-4.5,8.4,11.4-1.5,6,4.8,2.8-3.7,7.4-5.7,2.9C1178.3,41.3,1179.6,37.8,1183.6,38.6Z"/><path class="cls-2" d="M801.6,98.6c-8.2-4.4-18.8-12.4-16.5-22.9,12.2-4,19.8,12.6,16,22.9C801.1,98.2,801.1,97.7,801.6,98.6Z"/><path class="cls-2" d="M793.3,83.9c2.4,4,5.8,8.1,7.1,12.5C800.2,96.6,799.7,96.3,793.3,83.9Z"/><path class="cls-2" d="M1081.3,99.6c1-8.7-2.3-23.1,5.2-28.8,19.8,4.6,3.8,21.4-4.4,29.5-1-2.6.9-5.4,2.1-8S1086.5,85.7,1081.3,99.6Z"/><path class="cls-2" d="M502,96.8c12.3-5.5,26.9,1.7,38.6-3.4L529.3,80.8a14,14,0,0,0-1.7,7.7c.5-6.3-9.7-8-8.9-1.1a18.5,18.5,0,0,0-6.4-5,6.2,6.2,0,0,0,2.6,6.1l-9.6-6.9a5,5,0,0,0,3.8,5.7,20.2,20.2,0,0,1-11.4.5l8,.8a48.8,48.8,0,0,1-9.2,6.4,13.7,13.7,0,0,0,6.3,1C501.9,97,504.1,98.5,502,96.8Z"/></svg>