<?xml version="1.0" encoding="UTF-8"?>
<svg width="378px" height="324px" viewBox="0 0 378 324" xmlns="http://www.w3.org/2000/svg" xmlns:xlink="http://www.w3.org/1999/xlink" version="1.1">
 <!-- Generated by Pixelmator Pro 1.6.3 -->
 <g id="New-Group">
  <path id="Path" d="M352.6 160.7 C360.3 153 355 145.2 349 139.1 357.5 132.2 350.8 117.6 339.8 120.6 335.9 121.7 330.2 121.6 327.3 121.3 L325.3 121 C316 119.3 306.3 116.3 296.8 118 292.9 113.2 284.3 112.3 279.9 117.7 260.2 83.6 267.6 46.4 225.4 25.2 176.5 1.7 109.6 3.3 68.7 41.5 52.728 47.604 39.011 58.458 29.4 72.6 14.5 95.4 -0.3 124.6 7.9 152.3 12.4 164.8 21.7 175.8 18 189.8 11 225.9 1 285.8 50.6 293.6 60.4 302.9 74 306.4 87.5 306.9 99 310.1 112.5 306.5 123 310.9 148 324.3 178.1 311.9 203.2 304.7 247.3 288.5 274.5 245.6 284.5 201.3 294.1 211.5 298.4 200.4 306.9 199.5 324.3 198.7 383.5 183.7 352.6 160.7 Z M145.9 227 C139.9 235.4 137.4 245.4 129.9 252.1 121.6 251.7 100.5 259.3 102.4 246.2 108.3 242.1 107 232.1 99.8 230.2 96 229.4 93.2 230.7 90.5 227.2 117.1 206.9 131 197.7 144.9 217.9 148.2 220.8 147.6 223.3 145.9 227 Z M285.8 152.2 C285.3 150 284.9 147.8 284.3 145.6 286.7 146.9 285.5 149.9 285.8 152.2 Z" fill="#ff5e5b" fill-opacity="1" stroke="none"/>
  <path id="Path-1" d="M142.6 221.3 C137.7 203.2 115.9 207.3 103 212.8 90.1 218.3 101.8 237.7 113.6 230.9 L112.6 231.4 C114.515 230.617 116.488 229.982 118.5 229.5 85.9 241.8 103.4 268 120.1 252.4 132.4 246.7 147.1 237.2 142.6 221.3 Z" fill="#f5d491" fill-opacity="1" stroke="none"/>
  <path id="Path-2" d="M368.7 136 C364.7 136.668 360.655 137.036 356.6 137.1 362.5 130 380.6 113.4 361 111.9 335.2 114.7 307.3 113.2 283.2 103.3 271.1 63 247.5 20.2 204.1 8.3 119.1 -21.9 37 33.9 4.1 112 -1.5 137.3 -3.9 169.9 14.3 190.7 -25.7 275.1 35.7 317.6 115.2 321 189 332.1 278.8 298.2 288 215.4 311.8 213.5 379 193.2 374 162 373.4 157.9 370.8 155.1 367 155.1 375.7 149.7 384.8 137.5 368.7 136 Z M253.9 264 C224.8 299.4 176.9 310.8 132.8 308.3 91.1 305.8 27.9 300 15.9 251.7 13.5 231.2 22.7 211.5 27.8 192.4 28.933 190.823 29.372 188.851 29.013 186.943 28.654 185.035 27.529 183.357 25.9 182.3 9.8 167.6 12.9 136.7 17.7 117.3 51.7 34.6 137.8 -13.9 221.7 31.5 244.6 46 256.5 71.9 266.2 96.2 273.6 112.2 271.2 130 276.1 146.2 287.6 172.1 271.9 241.9 253.9 264 Z M333.6 187.7 C319.3 192.1 305.7 200.5 290.5 201.6 292.2 181.9 299.1 157.2 288.1 139.2 287.5 132.7 287.2 126.2 286.3 119.7 306.068 124.912 326.46 127.368 346.9 127 336.5 136.6 334.4 146.1 350.2 150.3 338.4 158.3 343.1 174.7 357.9 171.5 353.1 179.5 341.3 184.5 333.6 187.7 Z" fill="#2e1a1a" fill-opacity="1" stroke="none"/>
  <path id="Path-3" d="M159.1 38.8 C154.6 32.9 140.8 23.6 135.8 33.1 126.7 29.9 118.3 35.9 119.2 45.8 100 45.6 108.7 61.3 118.3 68.7 125.4 74.6 132.7 63.1 124.7 58.8 132 59.3 133.3 52.2 132.4 46.5 136.9 47.9 142.5 49.4 145.1 44.2 150.3 49.2 163.5 48.4 159.1 38.8 Z" fill="#2e1a1a" fill-opacity="1" stroke="none"/>
  <path id="Path-4" d="M199.6 131.4 C180.5 122.8 158.9 131.6 143.9 144.5 137.9 149.7 145.7 159.7 152.4 155.5 153.461 154.804 154.652 154.328 155.9 154.1 146.6 212.1 214.2 200 196 144.1 202.5 143.8 206.6 134.5 199.6 131.4 Z" fill="#2e1a1a" fill-opacity="1" stroke="none"/>
  <path id="Path-5" d="M75.4 143.1 C67 135.8 54.3 127 42.5 129.1 34.4 130.5 37.2 141.8 44.3 142.5 48.904 143.058 53.336 144.592 57.3 147 44.8 163.3 51 207.6 78.2 196.4 95.2 183.1 92.9 155.1 75.4 143.1 Z" fill="#2e1a1a" fill-opacity="1" stroke="none"/>
  <path id="Path-6" d="M151.2 229.1 C152.5 201.8 117.9 195.8 101.5 213.1 95.6 218.6 91.2 225.5 85.6 231.2 82.5 234.4 85.6 241.4 90.4 239.4 94.107 237.802 98.007 236.693 102 236.1 89.4 249.1 82.8 270.7 109.9 259 126.3 254.3 148.7 249 151.2 229.1 Z M119.8 245.9 C114.1 247.5 108.5 249 103 251.1 106.6 244 112.1 238.9 120.9 237 133.9 227.1 109.3 224.7 102.5 226.2 127.9 191.9 165.6 233.3 119.8 245.9 Z" fill="#2e1a1a" fill-opacity="1" stroke="none"/>
 </g>
</svg>
