<?xml version="1.0" encoding="UTF-8"?>
<svg width="378px" height="324px" viewBox="0 0 378 324" xmlns="http://www.w3.org/2000/svg" xmlns:xlink="http://www.w3.org/1999/xlink" version="1.1">
 <!-- Generated by Pixelmator Pro 1.6.3 -->
 <g id="New-Group">
  <path id="Path" d="M24.987 160.7 C17.287 153 22.587 145.2 28.587 139.1 20.087 132.2 26.787 117.6 37.787 120.6 41.687 121.7 47.387 121.6 50.287 121.3 L52.287 121 C61.587 119.3 71.287 116.3 80.787 118 84.687 113.2 93.287 112.3 97.687 117.7 117.387 83.6 109.987 46.4 152.187 25.2 201.087 1.7 267.987 3.3 308.887 41.5 324.859 47.604 338.576 58.458 348.187 72.6 363.087 95.4 377.887 124.6 369.687 152.3 365.187 164.8 355.887 175.8 359.587 189.8 366.587 225.9 376.587 285.8 326.987 293.6 317.187 302.9 303.587 306.4 290.087 306.9 278.587 310.1 265.087 306.5 254.587 310.9 229.587 324.3 199.487 311.9 174.387 304.7 130.287 288.5 103.087 245.6 93.087 201.3 83.487 211.5 79.187 200.4 70.687 199.5 53.287 198.7 -5.913 183.7 24.987 160.7 Z M231.687 227 C237.687 235.4 240.187 245.4 247.687 252.1 255.987 251.7 277.087 259.3 275.187 246.2 269.287 242.1 270.587 232.1 277.787 230.2 281.587 229.4 284.387 230.7 287.087 227.2 260.487 206.9 246.587 197.7 232.687 217.9 229.387 220.8 229.987 223.3 231.687 227 Z M91.787 152.2 C92.287 150 92.687 147.8 93.287 145.6 90.887 146.9 92.087 149.9 91.787 152.2 Z" fill="#ff5e5b" fill-opacity="1" stroke="none"/>
  <path id="Path-1" d="M234.987 221.3 C239.887 203.2 261.687 207.3 274.587 212.8 287.487 218.3 275.787 237.7 263.987 230.9 L264.987 231.4 C263.072 230.617 261.099 229.982 259.087 229.5 291.687 241.8 274.187 268 257.487 252.4 245.187 246.7 230.487 237.2 234.987 221.3 Z" fill="#f5d491" fill-opacity="1" stroke="none"/>
  <path id="Path-2" d="M8.887 136 C12.887 136.668 16.932 137.036 20.987 137.1 15.087 130 -3.013 113.4 16.587 111.9 42.387 114.7 70.287 113.2 94.387 103.3 106.487 63 130.087 20.2 173.487 8.3 258.487 -21.9 340.587 33.9 373.487 112 379.087 137.3 381.487 169.9 363.287 190.7 403.287 275.1 341.887 317.6 262.387 321 188.587 332.1 98.787 298.2 89.587 215.4 65.787 213.5 -1.413 193.2 3.587 162 4.187 157.9 6.787 155.1 10.587 155.1 1.887 149.7 -7.213 137.5 8.887 136 Z M123.687 264 C152.787 299.4 200.687 310.8 244.787 308.3 286.487 305.8 349.687 300 361.687 251.7 364.087 231.2 354.887 211.5 349.787 192.4 348.654 190.823 348.216 188.851 348.575 186.943 348.934 185.035 350.059 183.357 351.687 182.3 367.787 167.6 364.687 136.7 359.887 117.3 325.887 34.6 239.787 -13.9 155.887 31.5 132.987 46 121.087 71.9 111.387 96.2 103.987 112.2 106.387 130 101.487 146.2 89.987 172.1 105.687 241.9 123.687 264 Z M43.987 187.7 C58.287 192.1 71.887 200.5 87.087 201.6 85.387 181.9 78.487 157.2 89.487 139.2 90.087 132.7 90.387 126.2 91.287 119.7 71.52 124.912 51.127 127.368 30.687 127 41.087 136.6 43.187 146.1 27.387 150.3 39.187 158.3 34.487 174.7 19.687 171.5 24.487 179.5 36.287 184.5 43.987 187.7 Z" fill="#2e1a1a" fill-opacity="1" stroke="none"/>
  <path id="Path-3" d="M218.487 38.8 C222.987 32.9 236.787 23.6 241.787 33.1 250.887 29.9 259.287 35.9 258.387 45.8 277.587 45.6 268.887 61.3 259.287 68.7 252.187 74.6 244.887 63.1 252.887 58.8 245.587 59.3 244.287 52.2 245.187 46.5 240.687 47.9 235.087 49.4 232.487 44.2 227.287 49.2 214.087 48.4 218.487 38.8 Z" fill="#2e1a1a" fill-opacity="1" stroke="none"/>
  <path id="Path-4" d="M177.987 131.4 C197.087 122.8 218.687 131.6 233.687 144.5 239.687 149.7 231.887 159.7 225.187 155.5 224.126 154.804 222.936 154.328 221.687 154.1 230.987 212.1 163.387 200 181.587 144.1 175.087 143.8 170.987 134.5 177.987 131.4 Z" fill="#2e1a1a" fill-opacity="1" stroke="none"/>
  <path id="Path-5" d="M302.187 143.1 C310.587 135.8 323.287 127 335.087 129.1 343.187 130.5 340.387 141.8 333.287 142.5 328.683 143.058 324.251 144.592 320.287 147 332.787 163.3 326.587 207.6 299.387 196.4 282.387 183.1 284.687 155.1 302.187 143.1 Z" fill="#2e1a1a" fill-opacity="1" stroke="none"/>
  <path id="Path-6" d="M226.387 229.1 C225.087 201.8 259.687 195.8 276.087 213.1 281.987 218.6 286.387 225.5 291.987 231.2 295.087 234.4 291.987 241.4 287.187 239.4 283.48 237.802 279.581 236.693 275.587 236.1 288.187 249.1 294.787 270.7 267.687 259 251.287 254.3 228.887 249 226.387 229.1 Z M257.787 245.9 C263.487 247.5 269.087 249 274.587 251.1 270.987 244 265.487 238.9 256.687 237 243.687 227.1 268.287 224.7 275.087 226.2 249.687 191.9 211.987 233.3 257.787 245.9 Z" fill="#2e1a1a" fill-opacity="1" stroke="none"/>
 </g>
</svg>
