<svg id="Layer_3" data-name="Layer 3" xmlns="http://www.w3.org/2000/svg" viewBox="0 0 401.6 362.1"><defs><style>.cls-1{fill:#806960;}.cls-2{fill:#decbb7;}.cls-3{fill:none;}.cls-4{fill:#2e1a1a;}</style></defs><path class="cls-1" d="M274.2,219.2a1.6,1.6,0,0,0,.3.6Z"/><path class="cls-1" d="M128.6,165.4a3,3,0,0,0,2-.5A8.4,8.4,0,0,1,128.6,165.4Z"/><path class="cls-1" d="M395.7,283.2c-1.3-29.3-11.4-57.1-24.9-82.4-6.3-18.9-7.7-40-19.4-56.7-15.1-20.8-54.6-47.7-73.8-18-26.8-17.6-59.2-28.6-90.9-33,16.7-25.3-32.6-26-21.4,0-29.5,2.3-57.7,10.6-84.6,22.6-7.8-14.7-28.6-.9-39.6,3.6-18,.4-11.5,30.5,5.8,21.8-2.7,3.8-11.3-.4-13.6,7.6-2.4,12.5,7.7,9.8.9,28.1-2.7,22.8-16.1,41-19.1,63.5.9,11.4-.6,21.7-5.9,32-5.9,12.9-4.5,27.7.6,40.4,15.6,21.9,62.2,23,68.3-7.8s13.4-60.1,7.3-90.8c5-17.6,21.6-31.8,35-43.8-.5.2-4.4,3.1-.8.6a60.3,60.3,0,0,1,9-5.5h-.2c.6,0,3.5-1.7,2.2-.5,25.5-10.6,52-.2,78.3,1.7,19.8,2.4,33.5,18.1,52.4,23.3,1.2,11.3,7,19.6,12.9,29.3-1.2-3.4-.4-1.3.4.7h-.1c6,20.6,17.3,39,29.5,56.6-1,16.4,3.6,33.8,23.8,34.6C354.3,315.9,401,326.8,395.7,283.2Zm-71.3,22.9c-4.3-1.6-.6-1,.7,0Z"/><path class="cls-1" d="M191,9.8c-2.9-9.9-30.3-9-31.7,1.8C154.7,33,198.5,30.5,191,9.8Z"/><path class="cls-2" d="M344.9,105.3c2.2-13.4-40.6-64.6-53.3-70.6S263.8,24.9,251.7,16c-12.9-7.2-64.4-22.9-59.4,4.9-10.1,3.9-21.6,6-31.4,1.9-3.5-1.6-3.1-6.2-7.3-8.5C139,4.8,104.3,20.6,93,31.2c-4,6-8.3,2.3-13.9,5.5C59.9,51.9,45.4,74.1,37.2,97c-2.2,8.5,8.2,18.7,16.3,12.6,3.5-2.7,7-5.7,11-7.6s9.5-.9,13.9,2c32.3,6.7,79.6-2.7,98.5-32,19.9,26.6,55.3,34.2,82,48.7,28,11.9,29.3-16.3,57.8-1.8C332.3,129.9,347,126.1,344.9,105.3ZM147.3,47.1a11.3,11.3,0,0,0-1-1.3l2.8.7ZM165.5,49c-1-.4-2.4.3-3.2-.6h3.6ZM295.8,69.5a13.8,13.8,0,0,0-2.7,1.4,8.4,8.4,0,0,0-.2-5.2ZM271.3,50.4c5.9,1.9,12.7,4.6,16.7,9.1-6-1.8-10.7-4.2-16.7-5.8A18.2,18.2,0,0,0,271.3,50.4Z"/><path class="cls-3" d="M347.3,327.7c.7,3,5.2,2.1,4.6-1.6-1.4-5.9-9.4,5.9-1.5,2.1"/><path class="cls-2" d="M349.5,314.6c-16.4-1.3-21.5,27-3.3,27.2C364.7,344.1,370.2,314.7,349.5,314.6Z"/><path class="cls-2" d="M45.1,334.2C28.8,322.1,5.8,342.3,24.6,356,37.7,364.4,61.6,346,45.1,334.2Z"/><path class="cls-4" d="M400.3,276.1c-7-44-24.9-84.9-41.6-125.7-10.4-31.5-10.9-68.2-38.2-91.1C275.6,8.6,205.2-11.7,140.2,6.6,112.7,11.4,83.8,20.2,65,40.9,22.8,81.7,25.3,120.6,28.4,174.7c-5.2,26-20.7,47.7-21.3,75.7-5.5,26-17.8,64.4,13.3,78.8-40.4,31.9,48.5,51.2,34.2,7.3,42.6-6.5,37.1-87.6,41-121.1l-.7.2c3.6-39.9,44.8-49.2,78.5-46.4,28.7.4,60.7,5.2,81.6,26.8,20.7,24.3,13.1,64.2,41.8,83.7,1.9,20.6,19,33.1,38.2,37.1-34.3,32.2,41.6,43.4,35.7,6.2C396.7,324.3,405.3,297.4,400.3,276.1ZM336.7,113.2c1.1,3.3,2.3,6.5,3.3,9.8-45.3-33.4-30.9-7.7-74.5-9a302.9,302.9,0,0,0-45.2-16.8,50.3,50.3,0,0,1-23.8-10.8c-5.7-13-17.9-30.8-30.4-12.4-3.8,10.1-17.8,9.6-17.2,17-18.8,2.3-37.5,9-55,15-15-3-31.6-12.2-45.1.1C54.1,98,60.9,91,67.7,84.2c8.3,30.2,96.8-.1,93.7-29.1,9.4.9,28.6-11.1,33.7,1.8,4.3,32.7,84.4,69.5,102.4,33.9C312.3,95.2,325.2,102.9,336.7,113.2ZM185.6,90.4a128.9,128.9,0,0,0-17.6-.9C177.9,76.5,178.5,71.5,185.6,90.4ZM78.9,79.3c7.3-50.1,76.2-45.4,70.2-19.6C148,73.6,76.9,97,78.9,79.3ZM225.2,36.9c25.3-.8,68.9,21.9,60.9,51.6-11.5,12.9-33.2,1.7-46.9-2.4C216.6,79.7,182.4,39.5,225.2,36.9ZM188.8,11.1c-4.4,11.5-18.4,10-26,2.6A189.3,189.3,0,0,1,188.8,11.1ZM59.1,65.7c20.3-32.4,57.1-44.9,93.4-50.2.5,11.1,18,15.6,27.4,15.2,11.1-1,16.9-10.5,21.5-19.5,51.3,4,106,35.3,128.2,82.4-50.8-25-16.1-5.9-46.6-43.5-21.6-21.2-67.6-38-88.8-8.5-10.8-3.1-25.3,0-35.6,4.4C147.3,28.6,124.3,28.6,106,31.6,91.2,34.6,80,48,73.3,61.9c-10.8,11.3-21.7,22-31.8,34.6C45.1,85.1,51.9,75.4,59.1,65.7Zm-20,60.1c14.8-2.3,17.7-23.3,39.1-11.9-13.5,7.9-28.4,14.3-39.5,25.6C38.9,135,36.8,129.7,39.1,125.8Zm3.6,223c-6,4.5-16.9,3.7-21-3-2.3-5.9,9.3-7,7-13.1a88.6,88.6,0,0,0,13.9,3.7C42.8,341.3,48.5,344.9,42.7,348.8ZM301.9,205.9c-.4,19.3-4.5,38.2-5.8,57.5-23.6-33.4-13-76.8-60.7-93.9-42.5-14.8-122.4-25.9-145.1,24-18.4,33.6,8.7,154.1-59,128.3-20.2-5.1-23.1-26.5-18.4-44,5.6-21.8,5.9-45,14.1-66.1,11.3-19.4,15.3-40.8,12.3-63.2a4.9,4.9,0,0,0,6.9-.6c10.8-11.1,25.5-17.2,38.7-25,0,.2.1.3.1.5,2.9-2.5,6.4-4.7,10.2-4.7,63.1-33.7,144.4-14.8,200.9,26-3,2.9-7,6.6-5.2,11.4C298.4,172.3,302.2,187.9,301.9,205.9Zm55.3,126.3c-4.6,4.9-17.4,5.6-20.3-1.1,1.6-4.4,7-7.1,8.7-11.6a114.4,114.4,0,0,0,13.7,2.8C359,325.7,360.4,329.1,357.2,332.2ZM388.5,301c-10.5,22.8-54.4,4.8-70.8-3.7-11.7-9.4-11.4-27.3-9.8-40.8,6.2-34.5,7.4-71.7-4.6-103.3,16.6-10.9-8.4-23.3-17.5-29,35.4-18.8,28.1,7.2,56.9,9.9C355.8,189.4,395.6,242.2,388.5,301Z"/></svg>