<svg id="harryDay" xmlns="http://www.w3.org/2000/svg" viewBox="0 0 475.4 361.7"><defs><style>.cls-1{fill:#ffed66;}.cls-2{fill:#decbb7;}.cls-3{fill:#806960;}.cls-4{fill:#f5d491;}.cls-5{fill:#2e1a1a;}</style></defs><path class="cls-1" d="M141.8,154.6h0Z"/><path class="cls-1" d="M113.6,161.5l-2.7,1.2C110.2,163.1,110.5,163.1,113.6,161.5Z"/><path class="cls-1" d="M158.4,286.1h0Z"/><path class="cls-1" d="M157.9,286h0Z"/><path class="cls-1" d="M246.3,161.2a8.2,8.2,0,0,0-1.9-2.2C244,158.7,244.2,159.2,246.3,161.2Z"/><path class="cls-1" d="M305.6,288.5h-.1c2.5,2.4-1.8-2.5-1.4-3.8a10.4,10.4,0,0,0,.3,1.2c-3.6-8.9-6.6-15.4-1.6-24.1,5.3-35.9,18.7-130.8-29.9-138.2-19.1-17.4-47.1-19.7-72.3-19.9-32-15.7-71-5.7-99.8,12-7.6,2.5-14.5,7.2-21.4,10.5-25.2-4-24,22.9-20.3,39.3a25,25,0,0,0,9,12.6c-38.9,35.4-33.7,110.2,11,139,43.6,24.2,95.1,38.6,145.1,33.3C256,348,343.6,336.8,305.6,288.5ZM140.3,178.4h0c-21-8.4-26.9,19.2-30.9-14.9a34.8,34.8,0,0,1,5.1-2.6l-.9.5a132.6,132.6,0,0,1,27.6-6.8h-1.3l1.9-.2C142.4,161.9,139.1,171.2,140.3,178.4Zm66.9,81.7c-.6,6.8-.2,13.2-2.5,19.8,1.5-1.4-.8,1.6-.4,2s-.1-.1-.1-.2-.6,1.2-1.2,1.5l.3-.6-.7.7c-4.1,2.7-9,3.5-13.7,4.5h.4c-10.3.8-21,1.6-30.9-1.7,4.4,1.8-.2.4-1.4-.3h.4c4.6-9.1-8.1-31.2-9.2-33.9,8.8-11.7,33.6-9.9,49.2-10.5l-.6-.3C213.2,244.2,211.1,246.2,207.2,260.1Zm41.2-77.4a22.5,22.5,0,0,0-11.2,3.6c1.1-11.7-.8-23.4-6-33.1,5.9,1.3,11.9,3.4,15.7,8.4l-.6-.4a58.4,58.4,0,0,1,5.2,9.5l-.3-.6a126.8,126.8,0,0,1,4,13.7A17.7,17.7,0,0,0,248.4,182.7Z"/><path class="cls-1" d="M251.2,170.1a13,13,0,0,0-.8-1.7C249.7,167.1,249,166.4,251.2,170.1Z"/><path class="cls-1" d="M204.2,281.5Z"/><path class="cls-1" d="M203.3,282.6l.9-1.1A2.1,2.1,0,0,0,203.3,282.6Z"/><path class="cls-1" d="M187,288l1.9-.2C186.3,287.5,186.1,288,187,288Z"/><path class="cls-1" d="M204.2,281.5v.2C204.3,281.6,204.4,281.4,204.2,281.5Z"/><path class="cls-1" d="M199.7,241.9l-2.3-.4C199.9,242.4,200.4,242.2,199.7,241.9Z"/><path class="cls-1" d="M157.4,285.9h0Z"/><path class="cls-1" d="M204.2,281.5a7.5,7.5,0,0,0,.5-1.6A2.2,2.2,0,0,0,204.2,281.5Z"/><path class="cls-1" d="M462.1,167.3c-8.8-6.6-20.8-2.9-30,2,13.2-12.6-5.6-33.7-19-20.6-2.6,2.8-6.5,4.5-9.8,6.2a47.3,47.3,0,0,1-10.5,3.2c2.1-12.5,12.3-33.7-4.1-39.8-7-1.9-13.5,2.4-15.7,8.9-3.3,10.6-7.6,21.3-10.1,31.5-6.7,10.5,5.1,21.2,13.7,25.1,1.3,57.3,43,23.5,72.2,7.9-1.3.7,2-.6,3.5-1.2s3.7.5.3-.1C466.9,193,473.6,175.7,462.1,167.3Z"/><path class="cls-2" d="M379.2,326.7c-10.5-20.1-40.8-11.8-32.1,3.5C357.6,350.3,387.6,342.8,379.2,326.7Z"/><path class="cls-2" d="M46.1,333.7c-9-7.3-28,2.5-17.6,13S57.1,344.8,46.1,333.7Z"/><path class="cls-2" d="M351.8,105.2c-9-28.8-40-45-58-68.3a10.8,10.8,0,0,0-12.2-2.6c-6-4.3-13.1-11.7-21.2-8.5-13.8-6.5-28.9-14.7-44.4-8.6-36.4,25.9-45.1-2.9-78.8-6.2C93.6,15.2,37.7,61,32.8,103.6c12,14.9,43.5-11.9,65,4.1,18.2,4.7,34.6-11.6,52.8-6.4,12.6-.9,13.6-17.7,23.1-24.9,26.7,14.4,19.8,21.9,54.4,24.5,26.1,12.7,55.2,8.4,80.9-4C319.2,108.1,350.6,136.8,351.8,105.2Z"/><path class="cls-3" d="M290,129.9h-.2C290.5,130.3,291.7,130.8,290,129.9Z"/><path class="cls-3" d="M390.6,256.1c-1.6-34.3-20.6-64-33.3-95.2.8-14.5.3-35.4-18.3-37.7-64.2-54.3-89.7,7.4-49.2,6.7h-.1c14,12.6,18.5,34.6,23.1,52.5-.1-.4.3,3.6.3,3.5,2.4,21.4-7,44.3-1.4,65.1-2.1,13.6-11.8,26.6-3.5,40.7C340.4,338.9,425.3,322.2,390.6,256.1Z"/><path class="cls-3" d="M82.8,103.7c-11.4-1.9-25.1-6.4-31.8,2.1-14.5,3.6-32.5,30.1-14.9,39.7-10.6,5.9-2.5,21.8-5.1,31.4-17.8,42-21.2,86.7-22.4,130.7.5,8.5,7.8,12.4,14.3,11.4,9.4,16.7,56.4,19.2,41.3-8C45.5,290.6,47,264,47.1,238.2c-4.1-14.4-9.7-9.6-2.2-27.8s19.2-48.2,3.7-64.7c7.1-4.5,18.5-12.9,22.3-18.2C76.3,120.4,98.4,112.3,82.8,103.7Z"/><path class="cls-3" d="M186.9,84.1c-3.3-11.4-21.7-5.1-19.1,5.7S190.1,95.1,186.9,84.1Z"/><path class="cls-3" d="M194.7,10.2c-5.4-8.4-24-3.4-24.2,6.5C171.2,33.4,203.8,25.1,194.7,10.2Z"/><path class="cls-4" d="M202.7,252.8c-1-4.3-2.8-10.7-8.8-8.9-5.4-.1-13.6-3.4-17.5,2.7-7-2.7-14.4-1.6-21.4.2C133.4,264.7,203.4,270.8,202.7,252.8Z"/><path class="cls-4" d="M190.2,270.2c-15-10.1-39.1,8.2-21,16.3,10.2-2.5,26.5,1.5,31.1-10.4C201.7,270.6,194.3,265.4,190.2,270.2Z"/><path class="cls-5" d="M45.1,345.9c-.4.5-.2.3,0,0Z"/><path class="cls-5" d="M473.9,158.2c-8.1-13.1-26.3,4.7-37.6,6.3,7.6-8.3,11.8-19.2,7-30-11.7-10-28,10.6-40,14.4,3.2-13.1-10.9-68-27.8-47.8-2.9,15.4-3.3,31.7-11,45.6C350.2,70.4,286.9,3.6,207,0,155.7.4,95.8,5.5,60.3,47.2c-36.2,36.4-37.1,85.7-32.7,133C16.8,213.4-24.3,314,20.4,331.5c-26.9,19.8,21.9,42.1,35.8,22.8,4.4-22.3,8-10.8,23.7-24a152.8,152.8,0,0,0,36.2,13.8C185.7,355.4,273.4,367.5,330,316c16.7,3.4-7.6,38.6,34.5,34.9,16.9-.6,32.3-14.1,23.3-31.6,37-14,10.2-65.2,6.3-93.1C428.3,226.6,485.3,199.4,473.9,158.2ZM193.4,13.6c-6.4,5.2-13.7,5.8-20.3.8A196.8,196.8,0,0,1,193.4,13.6ZM81.5,64.9c9.3-27,55.7-40.9,73.7-16.3C165.9,78.3,72.2,102.3,81.5,64.9Zm-23.6,6A125.5,125.5,0,0,1,76.1,48.4c-8.2,10.1-7.3,22.6-20.9,27Q56.4,73.2,57.9,70.9Zm-15,32.5c41.1-45.8,21.4,13.7,92-12.5,52.7-15.9,41.7-75.2-13.6-67.3,43.2-17.1,33.6,8.8,66.7,8.1,57.3-42.1,129.7,26.7,151.6,81.4-13.9,1.2-21.6-13.6-33.2-18.8-16.2-9.8-28.4,8.4-43.5,9.6-18.2,3.3-39.9-12.3-60.7-12.1-5.8-6.5-12-15.5-20.7-18.6-10.7-2.3-22.2,7.2-23.4,17.6-21.1-.7-42.8,12.3-61.9,12.1-23.4-7.8-35-15.1-54.7,5.8ZM182.8,90.2c-4.2-.1-8.5-.2-12.7,0C173.1,83.9,180.4,83.3,182.8,90.2ZM39.4,119.4c17.6-8.8,25.2-24,45.3-7.9a211.1,211.1,0,0,0-24.3,14.2c.1-.2.1-.4.2-.6a181.3,181.3,0,0,0-21.8,18.2A105.9,105.9,0,0,1,39.4,119.4Zm5.9,226.3c-.1.1-.1.2-.2.2h.1c-1,1.1-2.4,1.1-3.6,1.5a40.7,40.7,0,0,1-6-.1,48.4,48.4,0,0,1-5.7-1.5c-.1-.2-2.5-1.2-2.9-1.6,2.1-1.7,5.7-4.6,4.8-7.9C37.6,338.7,45.8,337.4,45.3,345.7ZM27.2,319.3c-27.4-9.2-3.9-73-.7-95.2,9.3-24.7,22.1-49.5,12.9-76.2a5.4,5.4,0,0,0,7.6,1.4,89.3,89.3,0,0,0,7.5,26.2c-17.1,34.1-25.3,77.3-12.7,114.1,5.6,13.7,14.9,24.5,26.1,32.9C56.1,330,38.8,325,27.2,319.3ZM245,337.6c-93,7.2-233.3-1.2-187.9-132.4-.4-12.2,22.4-28.8,7.8-36.7-24.7-46.8,53.1-57.9,85.8-65.2,103.7-6,177.1,30.9,149.4,144.8-6.4,21.7-6,50.3,16.1,61.6C296.9,326.9,270.9,334.9,245,337.6Zm131.4-5.9c-9.6,9.3-34,8-25.1-10.4C361,321.4,377.5,317.2,376.4,331.7Zm14.5-30.1c-2.9,4.2-26.8,11.8-32,8.8a5,5,0,0,0,1.5-1.4c-3-.1-5.8-1.1-8.8-1.2a6.4,6.4,0,0,1,.2.7c-50.6-6.5-44-35.9-34.5-75.7,3-19.2,3.2-38.3-2-57.2-1.5-9.4-10.3-16.8-2.8-24.3-1.4-17.6-25-28.9-39.1-37.3,34.1-31.1,38.9,20.7,70,10C357.4,182.9,396.6,239.7,390.9,301.6ZM441,197c-57.2,33.4-51.3,10-72.4-37.7,13.8-2.8,14.3-24.9,17.4-36.3,10.7,46.9-19.3,61.4,44.3,26.3-44.9,47.6-1.8,34.4,31.6,19.9C461.9,180.9,450.6,190.7,441,197Z"/><path class="cls-5" d="M278.5,151c-11.6-6.8-78-20.5-60.7,5-12.5,54.3,50.4,59.4,43.9,2.3,3,.6,10,3.8,11.9,3.2C279.6,163.2,285.1,154.5,278.5,151Z"/><path class="cls-5" d="M151.2,169.9c-2-7.4,2.3-20.8-5.9-24.2-18.7-3.3-38,.4-56.1,4.4-8,1.8-4.6,14,3.3,12.3l10.6-2.2C99.3,204.9,152.1,225.7,151.2,169.9Zm-31,6.6-.3.3-.7-1.8Zm-3.7-18.4a4.3,4.3,0,0,0-.2,1.2l-.6-1.1Z"/><path class="cls-5" d="M213,245.6c-16.1-25.8-105.3-5.2-60,25.2-12.2,38.8,74.7,33.4,55.5-4.4C214.1,260.8,217.4,252.8,213,245.6Zm-37.3.8c8.4-.4,18.9.2,25.4,4.9.3.2,1.4,1.5.6.5l.4.5c-.2.2.3.5,0,.9s-.8,1.5-.1.4C189.6,276.3,122.4,252.3,175.7,246.4Zm22,30.7c-3.7,11.2-44.7,8.4-29.2-1.5a59.8,59.8,0,0,0,28.8-2.4C197.6,274.2,198.3,276.3,197.7,277.1Z"/><path class="cls-5" d="M342.7,93.1C330.3,76.7,309.6,68.6,292,59c-8.3-18.6-32.9-37.3-54.4-32.9-16.6-.4-36.5,5.7-44.6,21.2-8.8-1.8-30.3-4.7-29.4,9.1,1,3.3,5.1,6.2,8.6,4.9,23.4-9,15.9,17,35.1,23.9,24.8,12.7,69,18.8,83.2-11.3,15.6,7.5,30.4,16.5,43.1,28.4C339,106.1,346.3,98.5,342.7,93.1ZM254.2,81.7c-16.7-.5-55.2-3.3-49.9-27.3C222.7,11.1,322.8,67.1,254.2,81.7Z"/></svg>