<svg id="Layer_1" data-name="Layer 1" xmlns="http://www.w3.org/2000/svg" viewBox="0 0 449.3 361.2"><defs><style>.cls-1{fill:#d0f3af;}.cls-2{fill:#806960;}.cls-3{fill:#decbb7;}.cls-4{fill:#f5d491;}.cls-5,.cls-6{fill:#2e1a1a;}.cls-5{stroke:#2e1a1a;stroke-miterlimit:10;}</style></defs><path class="cls-1" d="M368.8,159.2c13.8-18.5-17.2-27.3-28.4-15.7-23.3-2.4-46.5,1.3-69.7,2.9a248.3,248.3,0,0,0-72.8-8.2c-30.3-35.5-49.6,14.9-48.2,42.7-4.1,19.7-7.4,41-17.6,58.5-4.5,7-10.8,13-14.5,20.5-6.3,1.6-11.7,7.4-9.6,15.6,26.6,80.5,173.7,89,232.8,42.8,32.3-16.5,37-68,19.6-97.6a77.5,77.5,0,0,1,3.4-13.4C368.6,193.6,373.9,173.8,368.8,159.2Zm-70.5,57.6c-1.1-12.6,10.2-25.5,4.3-37.1,6.7,1.7,20.9-3.2,22.3,5.2C327.5,201.7,315.5,230.6,298.3,216.8ZM231,246.4c29.1-17.8,34.2-9.5,56.7,10.9-16.4,9.4-.6,17.5-6.4,28.1h.1c-.3.4-1.2.9-1.1.7-4.9,4-10.5-3.4-16.5-.1-5.9-2.1-7-9.7-15.5-9.6C236.9,270.8,228.9,259.2,231,246.4Zm-23.5-36.9c-3.9-.1-8-1.2-12-.4,2.3-8.4-9.7-11.9-10.4-15.3,5.7-7.4,2.4-15.1,3.8-23.3C219.6,180.8,231,175.8,207.5,209.5Z"/><path class="cls-1" d="M281.3,285.4l-1,.6Z"/><path class="cls-1" d="M61.6,157.7c-2.1-12.2-17.2-2-26.1-5.4-7.2.3-6.3,9.2-.7,11.1-.6,4.4-.1,8.9-.3,13.4-32.3-1.1,7.4,23.3-13.8,16.9-5.5-.4-7.6,7.8-2.8,10.3,9,1.6,13.9,11.3,22.5,12C61,211.6,58.6,175.6,61.6,157.7Z"/><path class="cls-2" d="M303.3,186.9c-13.2,0-13.2,20.5,0,20.5S316.5,186.9,303.3,186.9Z"/><path class="cls-2" d="M315.7,134.2c-3.1,0-3.1,4.8,0,4.8S318.8,134.2,315.7,134.2Z"/><path class="cls-3" d="M15.2,310.6c6-35.6,38.8-30.8,27-2.9-.5,7.7,9.5,10.9,4.9,19.4C37.6,344.7,9.8,327.6,15.2,310.6Z"/><path class="cls-3" d="M414.3,336.6c-11.5-10.1-10-36.8,9-29.9,6.8,2.9,6.3,11.4,10.5,16.1,4.4.6,7.5,3.8,9.1,7.9C451.2,353.1,415.1,359,414.3,336.6Z"/><path class="cls-3" d="M380.9,106.8c-8.6-5-7.8-10.5-7.7-19.6C354.7,40,336.7,34.7,290.9,51.8c-9.2-4.9-23.5,5.6-35.3,2.9C227,17.5,161.1,6.5,129.8,44.8c-11.5-1.7-26.4,16.1-21.1,26.9C102.6,80.8,97.3,89.9,92.6,98c-5.9,10,6.2,23.3,16.5,16.4,41.2-14.7,81.1,31.4,131.9-4.8,50.6-15.4,65.2,51.5,116.3,14.4.5,11,8.6,2.9,13.7,1.9C378.7,122.6,389,115.4,380.9,106.8ZM287.2,88.2l-.3,1.2-1.1-.6c.6-.5.9-1.4,1.7-1.7A4.5,4.5,0,0,0,287.2,88.2Zm76.3,26.4-.4.2c.8-3.2-3.1-6.5,1.2-7.4C365,110.1,364.4,112.1,363.5,114.6Z"/><path class="cls-2" d="M159.5,122.3c-20.5-4.2-42.7-15.8-64.5-2.4-3.9,3.2-10.4-5.4-13.3,3.1C69.2,156.6,70,200.5,44.6,229.9c-8,6.4-15.3,19.8-21.8,27.8-12.9,7.9-1.9,27.8,11,21.7,6.9,7.2,16.3,13.7,23.5,15.5,17.3,4.5,29.1-12.7,37.6-25.2,11.5-5.5,19.6-17.3,26.2-27.9,28.5-9.2,21.6-105.9,35.5-108.8C163.5,134.8,166.4,124.3,159.5,122.3Z"/><path class="cls-2" d="M436.9,278.2c-20.2-18.1-26.6-45.8-35.1-71.1,6-5.4,3.7-15.3-.4-21.2-16.5-6.4-7-24.8-13.1-39.3,4.6-4.6,4.2-13.2-1.3-16.9-10.9-9.8-29.4,2.6-19.2,15.4-4.6,20.1,3.2,42.8-.6,63.5-9.7,12.3,3.9,28,5.2,40.5s-1.9,27.3,0,40.6c-2.9,4.5-5.8,12.1-1.6,16.7,5.7,4.1,15,.6,22,0C410.2,306.4,442.9,303.1,436.9,278.2Z"/><path class="cls-2" d="M323.8,132.3c-18.7,1.9-35.1-16.7-54.3-22-9.9-2.3-46.7,2.9-49.1,13.1-4.8.8-12,2.9-9.5,9.1s7.5,3.2,11.4,2c3.4,5.7,12.1,4.7,17.9,3.6,11.5.6,27,12.6,37.5,2.5,9.1,6.8,23.9,10.8,33,2.7C318.7,149.4,339.1,137.8,323.8,132.3Z"/><path class="cls-2" d="M299.9,18.8c-7.7,0-14.5-3.9-22.5-.8-4-9.6-17.3-10.9-26.5-11.4l-2.5.3C235.6,12.8,223.1,6,208.2,5c-13.2-2-18.1,15.1-5.5,19.9,24.5,8.6,34.9-.4,50.9,22.4,8.9,3.1,25.6,7.4,29.3-4.6,5.7-.6,11.3-1.4,17-1.5C314.5,40.9,314.2,19.8,299.9,18.8Z"/><path class="cls-4" d="M232.9,247.4c7.7-24.4,79,0,44.3,19.4C296,308.4,219.2,273.8,232.9,247.4Z"/><path class="cls-5" d="M436.8,342.3Z"/><path class="cls-5" d="M435.9,343.3l-.3.3C435.6,343.5,435.8,343.4,435.9,343.3Z"/><path class="cls-5" d="M437.1,341.9l-.3.4C436.9,342.2,436.9,342,437.1,341.9Z"/><path class="cls-5" d="M436.7,342.5v-.2A.3.3,0,0,0,436.7,342.5Z"/><path class="cls-5" d="M436.8,342.3l.2-.2C437,342.2,436.7,342.6,436.8,342.3Z"/><path class="cls-5" d="M58,294.9c42.8-16.2,76.7-70.6,85.1-114.5,5-30.2-4.6-59.1,37-58.9,50.6,13.6,105.6,27.2,158.1,16.4,6.2,1.4,34.1-12.4,25.3,1.3-12.1,6.2-26.2,4.6-39,8.5-43.9,9.2-88.6-4.7-132.1-10.6-5.5-1.4-10.5-4.2-15.5-6.6-5.1,1.1-15.2,2.4-16.6,7.1-2.8,47.9-14.3,93.9-47.9,130.1,33,90.9,182.6,90.7,245.3,34.1,26.7-37-16.1-74.1-1.2-94.8,10.2-17.8,11.2-40.6,4.8-60-2.6-7.3,9.1-10.5,11.7-3.2,6.6,19.2,5.7,41-1.4,60-17.8,26.9,24.5,58.3-1.5,100.8,19.6,2.3,41.9-4.8,60.6-9.7-6.7-40.2-31.5-77.1-42.9-116.6-2.9-11.1-15.9-30.1-3.5-38.6-1.7-5.9-3.9-11.8-5.7-17.5s7.9-8.9,9.8-2.7,14.4,30.4.1,29.8c10.6,32.2,24.5,63.7,37.4,95.1,5.6,19,32.5,57.3.3,64.5,6.9,14.8,3.5,8.1,16,14.6,12.6,12.9,6.4,33.2-12,35.3-16.7,8-26.3-11.7-24.2-25.3-1.3-6.2-7.6-13.9-3.5-19.7-11.3,2.1-29.1,9.4-37-2.3-70,58.6-222.5,62.9-260.8-34.9-12.8,11.6-28.7,33.5-48,28.1C52.7,302.6,53.5,295.9,58,294.9Zm359.5,44c1.8,8.9,6.4,10.9,14.4,6.7a32.3,32.3,0,0,0,3.7-2h0c0-.1.8-.6.3-.3s.6-.4.8-.8h0c.1-.1.4-.3.3-.5s.1-.1.1-.2h0c.2-10.5-3.9-8.1-8.2-13.9a5.2,5.2,0,0,1-5.4,0c-3.9-3.9-8.2-12-6.4-17.5a84.9,84.9,0,0,0-9.3,1.9C414.8,318.2,416.8,330.5,417.5,338.9Z"/><path class="cls-5" d="M101.7,95.9c-.9.8-.5.3,0,0Z"/><path class="cls-5" d="M2.1,176.3c-7.6-15.1,14-7.8,21.8-9.3-6.1-5.7-22.4-25.7-5.3-26.5,11.8,6.9,43.4-3.9,45.1,6.8,6.9-22.4,19.1-44.4,31.6-61.8-4.8-5.6,3.2-10.7,7.3-13.6,13.1-29.5,42-57.1,75.4-66.3,56.9-13.7,121.4.8,167.8,36.1a53,53,0,0,1,41.8,30.2,71.8,71.8,0,0,1,3,51.2c-23.8,14.2-59.7,21.2-89.3,12.4-16.9-2.8-24-23.2-39.6-26.2-20.8,6.5-38.2,25-61.8,21.5-25.6-1.3-51-5.1-74.8-15.1-12.7-3.1-22.6,8.7-35.3,7.8-30.4,36.3-16.5,103-68.3,147.8-2.8,5.5,11.4,4.2,15.1,6.2,8.7,2.3,17.1,8,23.8,13.8S56.6,304.2,51,299c6.3,5.7-2.9,14-8,16.7-15,1.6-2.8-21.1,6.4-17.6-11.2-10.5-27.8-8.3-39.4-17.4-11.1-17,25.6-36.1,29.8-53.6-11.9-2.2-50.7-33.8-27-40.1C9.1,183.6,5.5,180.1,2.1,176.3ZM128.3,53.2c-3.2,3.5-6.9,7.5-9.2,12,8.2-1.6,8.8-5.2,10-12.8Zm11.6,5.4c-9.7,52.3,37.8,46.4,73.5,41.7,23.2,2.5,21.1-30.5,14.5-44.3C214.3,44.5,140.1,31.2,139.9,58.6ZM241.7,14c-15.4-1.7-31.5-2.4-47,.2,18.6,2.5,36.8,9.3,51.4,21.3,6.7,4.2,10.8,15.7,19.8,13.8,15.4-5.5,30.4-14,46.9-14.7A205.6,205.6,0,0,0,241.7,14Zm86.8,29.7c-12.4,3.6-26.4,1.7-38.7,7.8-10.4,3.3-21.5,11.1-32.7,7.1C230.6,32.2,184.6,8.4,149.8,32.7c33.6-2.5,97-6.3,94.2,41.4,13.3-6.5,26.2-1.4,39.1,3.1,3.2-25.4,32.4-28.4,53.8-27.7C334.2,47.5,331.4,45.6,328.5,43.7ZM325.1,62c-20.4-2.8-37.8,14.1-27.3,34,16.6,19.1,53.1,19.8,74.4,8.2C367.6,69.6,363.2,56.4,325.1,62ZM104.9,108.3c16.6-8.9,32.5,3,48.6,6.6,35,8.7,69.5,5,99.9-14.3,43.9-5.8,21.2,50.7,129.2,17.5.4-2.2.9-4.5,1.2-6.7-25.8,17.6-69,16.9-93-4.4-12.3-21.2-4.3-18.1-33.3-24.1-20.2,0-12.7,24-32.4,28.2-22.3,1.8-45.3,7-67.4,2.7-31.1-6.8-18.6-38.9-56-17.9,0-.1.1-.2.2-.3-4.2,2.1-1.8,4.5-3.6,8s-3.9,5.7-5.7,8.7C97.1,112.6,100.8,110.1,104.9,108.3ZM29.4,207.1C55,235.7,54,167.2,62.2,152.3c-9.8,4.7-22.3,3.2-33.2,2.4,14,12.8,16,24.2-6.5,24.6,12.7,8.2,21,21.6-1.5,19.4A60.6,60.6,0,0,0,29.4,207.1Z"/><path class="cls-5" d="M12.1,301.5c6-.6,8.8-9,14.3-11.8s11.4,5.5,6.6,9.9c-12.2,14.4-21.1,7.7-9.9,30a3.3,3.3,0,0,0,1.3,1.3,10.6,10.6,0,0,0,2.5.9c30.7,1.7,2-12,16.3-21,10.1-.7,11,15.9,13.3,23.5-3.7,10.7-24.1,9.9-34,8.9C8.8,338.9-1.6,310.2,12.1,301.5Z"/><path class="cls-5" d="M291.8,187.5c5.8-10.6,36.4-37.2,46.2-23.7a6.2,6.2,0,0,1-4.3,7.5A71.1,71.1,0,0,0,310.3,184c10.4,0,9.5,16.2,11.8,23.7s-6.3,25.2-16.5,18.6-7.2-23.4-12.4-32C291,192.6,290.7,190,291.8,187.5Z"/><path class="cls-5" d="M181.1,159.7c18.1-6.3,36.6,4.3,50.7,15,6.7,4.1.5,14.6-6.2,10.5-2.6-1.9-5.2-3.9-7.9-5.7-2.5,56.4-42.2,45.1-29-9.1C180.4,174.9,170.9,164.5,181.1,159.7Z"/><path class="cls-5" d="M231.2,241.9c16.7-28.5,101.7,33,45.9,23.5,28.6,29.9-.1,26.6-23,16.3C237.3,276.4,218.7,260.3,231.2,241.9Zm5.1,17.7c10,13,27.9,16.5,42.8,20.6-3.6-8.3-13.7-15.1-22.1-15.3-15.9-10.8,18.1-8.7,24.1-8.1C271.4,243.5,226.4,231.5,236.3,259.6Z"/><path class="cls-6" d="M298.8,182.6a6.9,6.9,0,0,1,7.6.9c3.8-4.6,13.9-13.1,16.7-3,3.9,15.3,9.6,40.7-10.6,45.1S285.4,192.9,298.8,182.6Zm7.5,20.7c2.6,20.8,12.9-7.1,1.5-11.3A25.6,25.6,0,0,0,306.3,203.3Z"/><path class="cls-6" d="M192.9,165.6c18.9,1.2-.8,15.7.9,25.1.9,26.3,18.5,14.7,13.3-5.1-2.4-8.7,11.1-12.4,13.4-3.7,10.3,39.2-36.4,56.5-40.6,11.1C179.5,184.4,182.4,167.7,192.9,165.6Z"/></svg>