<svg id="perryDay" xmlns="http://www.w3.org/2000/svg" viewBox="0 0 475.1 362.1"><defs><style>.cls-1{fill:#7cc0ea;}.cls-2{fill:#fa9364;}.cls-3{fill:#decbb7;}.cls-4{fill:#806960;}.cls-5{fill:#f5d491;}.cls-6{fill:#2e1a1a;}</style></defs><path class="cls-1" d="M116,204.9c-7.8,0-7.8,12.1,0,12.1S123.8,204.9,116,204.9Z"/><path class="cls-2" d="M423.3,215.3c-20.6-43.3-.1-32.9-.2-68.8-1-8.6-7.6-13.8-14.7-13.2-8-8-19.2-13.7-29.5-17.9-51.7-23.3-122.3-18.9-172.3,7.2a78.3,78.3,0,0,0-17.9,14.2c-5.8.2-13.6,2.5-13.5,9.6,3.9,7.6-.4,14-1,22.6-17.2,42.3.5,64.9-1.4,107.6-2.4,33.9-47.6,41.1,18.7,61.3,50.1,19.3,102.1,12.9,152.4-1.8C410.3,330.4,447.6,279.3,423.3,215.3ZM320.5,276.8a54.2,54.2,0,0,1,.1,5.7c-7.8-1.5-12.7,6.6-19.6,8.7-11,4.6-25.2,2.2-31.7-8.4-1.6-2.7-3.7-4.8-.1-6.6,9.5-10-5.1-16.9-8-25.5,5.5-6.3,8.6-6,16.2-4a320.3,320.3,0,0,0,45.8-3.8c5.7,5.3-.7,15.6,5.4,21.6C324.1,266.9,320.1,271.2,320.5,276.8Zm53.1-116.6c-6.1,11-10.8,25.6-17.8,35.4-1.3,1.4-4.8,5.7-7.2,6.9-6-11.6-20.4-2-19.5-20.1-5.5-22.2,1-36.9,30.2-27h-.8a65.8,65.8,0,0,1,13.4,3.4C372.5,159.2,374.2,159.3,373.6,160.2Z"/><path class="cls-2" d="M358.5,155.3Z"/><path class="cls-2" d="M107.9,158.8c-10.1-5.3-10.1-22.9-11.4-33-1-8.5-14.1-9-13.6,0-1.2,12.8,3.9,29.4-1.5,40.8-10.1-4.7-18.8-12.3-27.7-18.7-7-5.1-13.6,5.4-8.7,11.2s12.6,13.8,16.4,22.1c-15-.1-28.7-12.7-44.3-12.4-29.9,10.3,47.1,49.6,58.3,48.8s14.2-8.5,17.3-17.1c3.6-10.2,8.9-21.2,16.9-28.7C113.4,168.2,112.5,161.2,107.9,158.8Z"/><path class="cls-3" d="M96.2,327.5c9.4-12.1,17.8-17.5,32.1-6.4,6.5,7.5-4.5,12.2-6.8,18.2C113.5,348.6,87.6,340.9,96.2,327.5Z"/><path class="cls-3" d="M429.3,334.5c5.1-2.3,13.6-4.9,17.2.8,3.6,3,5.2,9.2.3,12.2C434,360,419.3,343.5,429.3,334.5Z"/><path class="cls-3" d="M123.6,106c2.2-14.9,15-24.4,25-34.2,12.7-8.7,29.6-41,45.2-36.7,6-4.3,13.2-11.7,21.2-8.5,13.8-6.6,28.9-14.7,44.4-8.6,9,3.4,17.7,10.4,27,11.2s16-2.7,23.5-7.7C336.7.1,372.4,19,395.8,36.9c20.4,13.2,31.8,34.3,45,53.7,8,7.9-.1,22.5-11,19a90.9,90.9,0,0,0-28.6-6.1c-35.4,3.3-23.1,11.8-63.5-2.4-26.9,4.5-20.1-7.8-36.1-23.9-32.9,16.8-10.5,19.4-54.3,24.5-9.8,1.3-17.7,8.2-27.8,8.6a138.7,138.7,0,0,1-53.1-12.6C156.1,108.4,124.8,138.3,123.6,106Z"/><path class="cls-4" d="M185.4,130.7h.2C184.9,131.1,183.7,131.6,185.4,130.7Z"/><path class="cls-4" d="M84.7,256.9c-.3-41.5,34.7-73.8,33.8-114.4h0c1.9-14.6,16.3-17.9,26.3-25.1,15.9-6.7,30.7-21.2,49.2-14.7s10,33.8-8.4,28h.1c-13.5,11.4-18.9,35.6-23.1,52.5.1-.4-.3,3.5-.3,3.5-2.4,21.4,7,44.3,1.4,65.1,2.1,13.6,11.8,26.6,3.5,40.6C133.9,339.2,50.7,324.7,84.7,256.9Z"/><path class="cls-4" d="M392.6,104.5c14.3-1.5,20.7-7.8,31.8,2.1,14.3,3.4,32.7,30.5,14.9,39.7,10.6,5.9,2.5,21.8,5.1,31.4,12.7,38,26.3,77.2,19.2,118.1,7.8,9,1.3,26.9-11.1,24-9.4,16.7-56.4,19.2-41.3-8a101.3,101.3,0,0,0,9-14c16.2-18.5-1.6-59.9,15-69.6-4.6-25.2-27.5-58.9-8.4-81.7-7.1-4.5-18.5-12.9-22.3-18.2-2.6-2.2-5.6-4.1-7.2-6.9s-2.4-2.5-4.7-2.9C385.6,116.8,385.6,106.3,392.6,104.5Z"/><path class="cls-4" d="M288.5,84.9c3.3-11.4,21.7-5.1,19.1,5.7S285.3,95.9,288.5,84.9Z"/><path class="cls-4" d="M280.7,11c3.6-5.3,9.1-5.3,14.2-2.4,5.1-.8,10.3,3.8,10,8.9C304.2,34.2,271.6,25.9,280.7,11Z"/><path class="cls-5" d="M272.7,253.6c1-4.3,2.8-10.7,8.8-8.9,5.4-.1,13.6-3.4,17.5,2.7,8.2-5,37.5,1,21.4,12.2-10.8,3-24.2,8.9-34.7,3C280.8,261.9,271.9,259.9,272.7,253.6Z"/><path class="cls-5" d="M285.2,271a.3.3,0,0,0,.1.2c17.5-11.3,37.9,10.1,20.9,16.1-10.2-2.5-26.5,1.5-31.1-10.4C273.7,271.4,281.1,266.2,285.2,271Z"/><path class="cls-6" d="M430.3,346.7c.4.4.2.3,0,0Z"/><path class="cls-6" d="M1.5,159c7.3-13.2,26.7,4.7,37.6,6.3-7.6-8.3-11.8-19.2-7-30,9.2-10.6,29.6,11,40,14.4-3.6-12.3,11.9-69,27.8-47.8,2.9,15.4,3.3,31.7,11,45.6C129,48.8,221.1-17.7,320.5,4.2c35.1,4.4,71.3,15.4,94.6,43.8,36.2,36.4,37.1,85.7,32.7,133,11.7,31,22.8,62.2,24.8,95.6,3.8,20.1,6.4,47.4-17.6,55.7,33.1,26.8-47.4,46.9-38.1,8.3a36,36,0,0,1-21.4-9.6,148.8,148.8,0,0,1-36.2,13.9c-67.4,11.1-149,21.9-207-21.8-4.6-5.1-8-7.3-14.6-4.1,17.9,44.5-67.3,42.9-50.1,1.1-36.8-12.9-10.2-65.9-6.3-93.2C47.1,227.5-10,200.1,1.5,159ZM282,14.4c6.4,5.2,13.7,5.7,20.3.8A197.9,197.9,0,0,0,282,14.4ZM393.9,65.7c-9.3-27-55.7-40.9-73.7-16.3C308.4,78.6,404.7,103,393.9,65.7Zm23.6,6a121.9,121.9,0,0,0-18.3-22.5c8.3,10.1,7.4,22.6,21,27Q419,74,417.5,71.7Zm15,32.5c-9.5-6.9-15.2-16.4-25.9-21.4-13.2,21.7-45.9,16.4-66.1,8.9-52.8-15.9-41.6-75.2,13.6-67.3A268.2,268.2,0,0,0,320,17.3c-3.8,9.3-22.4,17.6-32.6,15.1s-21.4-9-28.9-16.5c-54.6,6.6-103,47.1-122.7,98,13.9,1.2,21.6-13.6,33.2-18.9,16.2-9.8,28.4,8.5,43.5,9.6a5.2,5.2,0,0,1,5.1,2.8,225.9,225.9,0,0,1,38.3-11.8c7-2.4,15.8-.2,19.9-6.7,6.9-4.1,9.6-13.2,18.1-14.9,10.7-2.3,22.2,7.2,23.4,17.6a199.9,199.9,0,0,1,58.5,14c26.7-9.5,34.5-18.9,58.1,3.9ZM292.6,91c4.2-.1,8.5-.2,12.7-.1C302.3,84.7,295,84.1,292.6,91ZM436,120.1c-19.6-8.9-22.4-24.4-45.3-7.8A211.1,211.1,0,0,1,415,126.5c-.1-.2-.1-.4-.2-.6a181.3,181.3,0,0,1,21.8,18.2A107,107,0,0,0,436,120.1Zm-5.9,226.4c.1.1.1.2.2.2h-.2c1.1,1.1,2.5,1.1,3.7,1.5a40.7,40.7,0,0,0,6-.1,35.3,35.3,0,0,0,5.7-1.6,27.4,27.4,0,0,0,2.9-1.5h.1c-2.8-1.7-5.6-4.6-4.9-7.8C437.8,339.5,429.6,338.1,430.1,346.5ZM448.2,320c14.7-4.4,14.2-19,11.7-31.4-2.1-21.5-4.7-43-11-63.7-9.3-24.7-22.1-49.5-12.9-76.2a5.4,5.4,0,0,1-7.6,1.4,89.3,89.3,0,0,1-7.5,26.2c10.5,18.1,15,39.3,17.4,59.9,5.4,32-3,68.2-30.8,87.1C419.3,330.8,436.6,325.8,448.2,320ZM230.4,338.4c111.2,8.3,244.2-7.4,179.5-153.2-5.4-3.4-6.7-14.4.6-15.9a74.2,74.2,0,0,0,6-28.7C349.3,89.4,243.3,89.2,180,146.9a5.9,5.9,0,0,1,2.1,8c-36.9,57.3,25.4,126-22.9,155.6C178.5,327.7,204.5,335.7,230.4,338.4ZM99,332.5c10.5,9.3,34.1,8.3,24.9-11.1C112.8,323.8,98.3,317.1,99,332.5ZM84.5,302.4c3.2,4.9,10.4,5.4,15.9,5.6,3.5,4.1,10.1,5.4,16.1,3.2a5,5,0,0,1-1.5-1.4c3-.1,5.8-1.1,8.8-1.2a6.4,6.4,0,0,0-.2.7c85.8-13.1,4.7-79.5,43.7-152-18.1-12.2,24.5-37.4,34.7-42.5-38.3-31.4-36.8,21.4-70,10-10.4,44.5-35,83.9-42.8,129.1C87.4,269.6,79,287.1,84.5,302.4ZM34.4,197.8c14.5,10.7,33.5,15,50.7,16.2,5.3-18.7,15-35.7,21.7-53.9-13.8-2.8-14.3-24.9-17.4-36.3-12.7,38.8,23.9,65.4-44.3,26.3,45.6,49.1,2.1,33.8-31.6,19.9C13.5,181.7,24.8,191.5,34.4,197.8Z"/><path class="cls-6" d="M196.9,151.8c7.4-7.1,82.1-18.4,60,3.4,14.9,54.5-49,63.5-43.2,3.9-3,.6-10,3.8-11.9,3.2h-.5C195.3,163.7,190.7,154.9,196.9,151.8Z"/><path class="cls-6" d="M324.2,170.6c1.9-7.1-2.1-21.1,5.9-24.1,18.6-3.3,38,.4,56.1,4.4,8,1.8,4.6,14-3.3,12.3L372.3,161C374.7,206.8,324.7,227.2,324.2,170.6Zm31,6.7.3.3.7-1.8Zm3.7-18.4a3.6,3.6,0,0,1,.2,1.1l.6-1Z"/><path class="cls-6" d="M262.4,246.4c16.1-25.8,105.3-5.2,60,25.2,12.1,38.8-74.7,33.4-55.5-4.4C261.3,261.6,258,253.6,262.4,246.4Zm37.3.8c-8.4-.4-18.9.2-25.4,4.9-.3.2-1.4,1.5-.6.5l-.4.5c.2.2-.3.5,0,.9s.8,1.5.1.4C285.4,276.7,354.1,253.4,299.7,247.2Zm-22,30.7c6.4,8.7,28.3,11.4,34.5.9-10.5-4.2-23.2.4-34.1-4.8C277.9,275,277.1,277.1,277.7,277.9Z"/><path class="cls-6" d="M132.7,93.9c12.7-16.6,33.8-25,51.8-34.6,13.3-38.1,76.7-45.4,97.9-11.2,8.7-1.8,30.4-4.7,29.4,9.1-1,3.3-5.1,6.2-8.6,4.9-5.7-2.3-12-.4-17.6-1.3-2.6,38.9-86.3,49.8-100.7,13.9-15.6,7.5-30.4,16.5-43.1,28.4C136.4,106.9,129.1,99.3,132.7,93.9Zm88.5-11.4c16.7-.5,55.1-3.3,49.9-27.3C252,12,152.4,68.1,221.2,82.5Z"/></svg>