<svg id="sahanaDay" xmlns="http://www.w3.org/2000/svg" viewBox="0 0 475.1 362.5"><defs><style>.cls-1{fill:#00cecb;}.cls-2{fill:#decbb7;}.cls-3{fill:#806960;}.cls-4{fill:#f5d491;}.cls-5{fill:#2e1a1a;}</style></defs><path class="cls-1" d="M200,259.5h.1a15.7,15.7,0,0,0-2.3,1.5Z"/><path class="cls-1" d="M327.2,300.2c-5.6-13.4-11.5-25.6-9.3-40.7-1.4-36.8-3.7-75-14.1-110.3-40.4-57.9-128.2-54.1-189.9-39.3-21.9,3.5-42.1,14.5-58.5,28.2-9.6,10.5,1.8,20,4,29.4,3.9,17.8,2.8,35-11.1,49.3-5.5,27.5-8.9,65.1,12.8,87.8,46.2,43,116.9,53.3,178,46.4C268.4,341.4,332.5,343.6,327.2,300.2ZM102.7,168.9a34.6,34.6,0,0,1,4.3-2.4A17.8,17.8,0,0,1,102.7,168.9Zm9.3-1.8c-.8-2.4.8-2.6,2.8-3.1A41.2,41.2,0,0,0,112,167.1Zm99.2,82.1a108.3,108.3,0,0,1-11.1,10.3l.8-.5-3.1,2c-9.5,6.6-19.6,12.4-30.7,15.8,6.6-16.6-1.3-34.4-10.1-48.7C174,223.5,207.8,233.2,211.2,249.2Zm32.6-77.5a38.1,38.1,0,0,0-4.2-8.9c5.9,3,14.2,5.5,17.3,11.5A25.5,25.5,0,0,0,243.8,171.7Z"/><path class="cls-1" d="M464.3,165.8c-8.4-9.1-16.4,2.2-23.4,5-12.8-2.6-11.9,11.8-22.6,9.1,15.8-8.2,31.6-41.3,2-34.6-10.7,7.7-19.6,18.1-30.8,25.1,33-39.7-9-85.3-18.2-15-8.7,6-8.2,35.7,5.2,36.8,4.1,9.8,4.3,29.4,20,25.7C419.1,218.3,477,194.3,464.3,165.8Z"/><path class="cls-2" d="M52.8,344.1c-3.6-19.5-45.7-10.5-26.2,5.9C35,352.8,53.8,359,52.8,344.1Z"/><path class="cls-2" d="M376,323.4a7.6,7.6,0,0,0-5.8-3.5c-7.9-3.4-35.6-2.1-22.4,13.6C352.7,345,386,337.6,376,323.4Z"/><path class="cls-2" d="M314.5,59.1c-25.6-23.4-54.9-35.6-87.5-46-16.7-1-24.7,18.6-40.5,17.9C128.1-15.8,58.8,40.5,33.6,96.6c-6.6,10.3,8.8,22.3,17.1,13.2,5.5-7.6,11.2-15.3,21.2-11.3,17.9,18.1,39.1-1.9,57.9,5.4,31.9-3.4,36.2-29.8,52.1-22.5-1.2-.3,1.6,1.1.5.1,4.1,20.1,24.3,24,42,22.1,9.6.7,17.3,6.7,26.9,7.5,20.5,6.3,38.2-30.6,52.7-8.3C363.3,150.2,353.3,83.9,314.5,59.1Z"/><path class="cls-3" d="M191.7,4.9c-8-2.1-21.6-3.8-25.1,6C163,35.5,217.8,22.9,191.7,4.9Z"/><path class="cls-3" d="M186.8,85.9c-4.5-13.2-25.5-5-22.7,7.3S189.9,97.4,186.8,85.9Z"/><path class="cls-3" d="M88.7,103.2c-8.1-1.3-16.7-2.8-24.8-1.3s-14.3,8-20.4,14.7c-4.5-.6-9.4,1.5-10.6,6.6a140,140,0,0,0,2.5,47.7c-6.1,36.4-26.2,69.3-24.2,106.9-20.3,62.3,89.8,71.6,52.2,32.8-32.2-48-22.5-88.8-6.3-139.6-13.8-39.2-7.8-38.5,29.1-52l-2.2.9C91.3,118.2,96.5,107.7,88.7,103.2Z"/><path class="cls-3" d="M397.9,277.1c-10.6-23.8-5.5-51.8-21.9-73.4-15.1-16.4-13.3-48.4-28-64.9,7.5-6.5-.4-18.7-9.4-16.2-3.9.8-8.5,2.2-11.6-1-9.8-7.6-18.2-18.6-30.9-21.3-42.6,5.5-16.5,25.3,4,39.7,6.5,4.6,6.1,11.8,5,18.8,2.5,20,13.3,38.5,7.9,59.4-3.1,31.2-21,82.6,23.5,89.9C365.6,319.1,412,320.6,397.9,277.1Z"/><path class="cls-4" d="M205.5,250.2c.6-12.4-18.6-10-26.8-13.7-1.2-3.7-5.6-5.5-8.2-2.4-6-3.4-13.6,2.4-6.3,7.3,1.2,5.8,10.4,5.2,15.1,6-3.7,6.5-17.1,32-5.2,33,9.5-2.5,14.8-10.8,20.2-18.4C199.6,261.6,206.7,256.2,205.5,250.2Z"/><path class="cls-5" d="M44.9,346.8c-.4.4-.2.3,0,0Z"/><path class="cls-5" d="M473.6,159c-8-13-26.2,4.7-37.6,6.4,26-43.7-6-35.6-33-15.6,3.2-13.2-10.9-68-27.7-47.9-2.9,15.4-3.3,31.7-11,45.7C352.9,93.1,319.8,42,268.8,17.2,169.7-31.1,8.3,24.8,25.9,153c5.9,19.3-.4,37.6-8.7,55.2C8.6,241.8-10.7,292.5,7.7,324c18.6,10.8,4.4,8.1,4.7,23.7,5.3,15.5,33.2,20.1,43.6,7.5,3.2-19.5,9.5-12.8,23.7-24.1A148.1,148.1,0,0,0,115.8,345c34.1,8.2,69.5,8.9,104.3,8.9,44.1,5.5,83-22.4,117.3-34.9-13.9,33.4,35.9,44.3,51.2,19.8,2.8-6.1,1-12.4-1-18.6,36.9-14,10.1-65.3,6.3-93.2C428.1,227.5,485.1,200.2,473.6,159ZM193.2,14.4c-6.5,5.2-13.8,5.8-20.3.9C179.6,14.7,186.4,14.4,193.2,14.4ZM81.2,65.7c9.4-26.9,55.7-40.8,73.8-16.2C165.7,79.1,72,103.1,81.2,65.7ZM57.6,71.8A122.6,122.6,0,0,1,75.9,49.3c-8.3,10-7.3,22.6-21,27ZM42.7,104.3c39-44.8,26.3,13.5,92-12.6,52.2-14.4,40.8-76.2-13.6-67.3,40.5-16.8,34.8,8.6,66.7,8.1,18.4-7.2,31.1-22.3,51.5-11.7,40.4-1.5,135.5,117.7,84.5,87.6-24.3-26.7-40.2-11.7-66.3-.9-32-13.1-50.7-8.5-76.3-33.4-10.7-2.3-22.1,7.2-23.3,17.6-21.1-.8-42.9,12.3-62,12.1-21.4-7.9-37.2-14.3-54.6,5.8C41.7,107.8,42.2,106,42.7,104.3ZM182.6,91.1c-4.3-.2-8.5-.2-12.7-.1C172.9,84.8,180.2,84.2,182.6,91.1ZM39.2,120.2c16.6-8.6,26.4-23.8,45.3-7.9a196,196,0,0,0-24.3,14.3c0-.2.1-.4.1-.6a187.5,187.5,0,0,0-21.7,18.1A100.7,100.7,0,0,1,39.2,120.2ZM45,346.6c0,.1-.1.1-.1.2a.1.1,0,0,1,.1-.1c-1,1-2.4,1.1-3.7,1.4a23.6,23.6,0,0,1-5.9-.1,25.3,25.3,0,0,1-5.7-1.5,23.1,23.1,0,0,1-3-1.6c2.2-1.6,5.7-4.5,4.8-7.8C37.3,339.5,45.5,338.2,45,346.6ZM27,320.1c-27.9-11.3-3.8-71.5-.8-95.2,9.3-24.6,22.1-49.4,12.9-76.2,11.9,2.6,8.8,16.4,15.2,27.6-17.2,34.1-25.4,77.4-12.8,114.2,5.7,13.7,14.9,24.4,26.2,32.9C55.8,330.9,38.6,325.9,27,320.1Zm217.7,18.3c-91.8,8.2-234.2-3-187.8-132.3-.4-12.2,22.3-28.8,7.7-36.7-24.6-46.8,53.2-57.9,85.9-65.3C252.1,96.7,328.9,137.5,299.9,249,276.4,317.6,369.6,309.8,244.7,338.4Zm131.5-5.8c-9.7,9.2-34.1,7.9-25.1-10.4C360.7,322.3,377.3,318,376.2,332.6Zm14.4-30.2c-5.8,5.2-23.7,11.4-31.9,8.8-50.8-8-55.4-24.4-41.7-77.5,3.1-19.3,3.2-38.3-2-57.2-1.5-9.4-10.3-16.8-2.8-24.4-1.4-17.5-24.9-28.9-39-37.2,32.4-30.9,39.7,20.4,69.9,10C357.2,183.8,396.4,240.6,390.6,302.4Zm50.1-104.5c-52.7,31.3-51.6,12.9-71-33.9,4.4-8.2,16.3-24.5,16.1-40.1,9.3,48.9-16.2,59.7,44.2,26.3-4,9.8-33.1,27.5-13.2,34.1C445.3,178.6,487.7,155.4,440.7,197.9Z"/><path class="cls-5" d="M278.3,151.9c-9.6-7.1-78.7-19.3-60.1,3.4-5.7,14-.8,41.7,16.6,45.2,39.9,1.8,13.3-50.3,38.5-38.2C279.3,164.1,284.8,155.3,278.3,151.9Z"/><path class="cls-5" d="M151,170.7c6.2-38.9-38.2-23.7-62.1-19.7-8,1.8-4.6,13.9,3.4,12.2,2.9.2,11.3-4.4,10.3-.2C101.2,207.6,152,224.8,151,170.7Zm-31.1,6.7c-.5.6-.6-1.1-.9-1.6ZM116.2,159c-.1.3-.1.7-.2,1.1S115,158.9,116.2,159Z"/><path class="cls-5" d="M342.5,94C330,77.5,309.3,69.5,291.7,59.9c-8.2-18.6-32.9-37.4-54.3-32.9-16.7-.5-36.5,5.7-44.6,21.2-8.9-1.9-30.4-4.7-29.4,9,.9,3.4,5,6.3,8.6,4.9,22.5-9.2,16.6,17.4,35.1,24,24.8,12.6,69,18.8,83.1-11.3C302.6,75.3,347.1,122.9,342.5,94ZM254,82.6c-16.8-.5-55.2-3.3-49.9-27.4C222.3,11.7,321.9,68.1,254,82.6Z"/><path class="cls-5" d="M215.4,239.4c-10.7-10.5-57-24.8-64.2-8.1,6.1,24,25,18.7,7.1,45.4C156.2,314.5,233.7,260.8,215.4,239.4Zm-43.5,40.9.3-1.1C173.8,280.6,172.7,280.4,171.9,280.3Zm23.9-21.1a115,115,0,0,1-21,14.4c25.4-39.3,5.1-18.9-7.6-35.6,11.8,1.9,29.1,1.9,37.1,10.7C203.2,252.6,198.9,256.4,195.8,259.2Z"/></svg>