<svg id="toddDay" xmlns="http://www.w3.org/2000/svg" viewBox="0 0 449.7 360.4"><defs><style>.cls-1{fill:#ff5e5b;}.cls-2{fill:#decbb7;}.cls-3{fill:#806960;}.cls-4{fill:#f5d491;}.cls-5,.cls-6{fill:#2e1a1a;}.cls-5{stroke:#2e1a1a;stroke-miterlimit:10;}</style></defs><path class="cls-1" d="M334.2,259.2c-13-22.7-28.1-43.4-34.1-70.1-3-78.1,2.8-69-70.6-49.1-18.9-9.3-40.9,12.5-58,8.6-75.2-6-111.9-34.3-80.8,69.4-4.7,28.2-18.4,61.4-2,88.5C148,359.2,345.8,374.6,334.2,259.2ZM147.1,217.3c-5.8,8.8,2.3-16,3.6-20.6C150.4,203.8,151.2,211.1,147.1,217.3Zm70.3,27.4c0,.4-.4,2.7-.3,2.5,2,20.5-64.7,56.5-46.1,24.1,3.2-2.9.1-7.3-3.2-7.3-9.2-18.3,37.2-32.2,49.6-23.7A32.3,32.3,0,0,1,217.4,244.7Zm39.2-32c-13.2-3.3-10.6-34-24.4-44.3,8.4-2.7,16.5-6,25-8.3C253.2,176.7,268.2,201.6,256.6,212.7Z"/><path class="cls-1" d="M420.6,196.2c-13.1,3.8,14.3-14,2.3-19.8-26.9-8.9,12.9-14.6-7.2-24.3-7.6-5.1-40.7-6.4-28.1,9.1,5.5,17.2,6.8,35.4,15.7,51C412.3,224.6,445.8,193.8,420.6,196.2Z"/><path class="cls-2" d="M434.5,310.2c-1.9-28.3-38.8-36.4-27-2.9.6,7.7-9.5,10.9-4.9,19.4C412.1,344.3,440,327.2,434.5,310.2Z"/><path class="cls-2" d="M35.5,336.2c11.4-10.1,9.9-36.8-9-29.9-6.8,2.9-6.3,11.4-10.6,16.1-4.3.6-7.5,3.8-9.1,7.9C-1.5,352.7,34.6,358.6,35.5,336.2Z"/><path class="cls-2" d="M357.2,97.6C341.5,82.8,346,45.9,320,44.4,279.6-5.3,218.8,33.7,181.5,57.3c-17.7-9.5-38.3-12.5-59-12.8-17.2-9-31.1,11.4-37.7,26.5-8.2,7.1-8.5,19.5-8.4,27.9-6.7-2.1-7.5,4.7-10,8.8-8.8,13.7,13.1,13.5,21,18.5,55.9,24.5,58.6-11.6,101.8-19.1,72.1,22,67.7,17.7,139.5,1.8C342.3,113.8,362,123.9,357.2,97.6ZM162.8,89a18.9,18.9,0,0,0-.5-2.3C165.6,87.5,166.4,87.5,162.8,89Z"/><path class="cls-3" d="M426.9,257.3c-66-72.4-36.1-109.8-64.9-137.4-21.1-5.5-51.7-12-69.4,5,17.5,31.8,2.4,94.6,37.8,116.5,16,29.8,54.8,76.5,85.5,37.6C428.8,285.1,439.9,265.2,426.9,257.3Z"/><path class="cls-3" d="M88.8,141.6c3.4-3.6-.1-8.8-4.7-8.4-3.9-12.1-24.5-8.2-25.7,3.6C66.3,157.8,37,249.9,22,268.7c-16.1,7.9-10.6,26.9,4.2,33,11.4,2.1,64.3,16.3,53.5-6.8-6.2-26.3,0-52.4,6.1-78.4C80.6,195,77.7,157.1,88.8,141.6Z"/><path class="cls-3" d="M237.7,128.6c-12-14.6-37.2-21-57.5-18.7-13.8,7.3-33.1,12.5-43,23.3-9.3-4.2-20.1,6.3-7.3,10.4,4.3,1.9,9.8-.5,13.9,2.4,12.7,6.4,23.5-8.4,33.5-2.5,11.1,3,21.8-5.1,32.2-5.8C216.5,139.3,238.6,136.4,237.7,128.6Z"/><path class="cls-3" d="M241.5,4.6c-14.8,1-27.3,7.8-40.2,1.9l-2.5-.3c-19.3.5-29.7,13.9-49,12.2-26.3,10.3-1.3,26.8,16.4,23.9,17.8,21.8,35.5-5.4,50.7-11.6C233.7,32.9,276.9,13.6,241.5,4.6Z"/><path class="cls-4" d="M216.8,247c-9-25.1-77.1.2-44.4,19.6C155.8,307.1,230.8,273.7,216.8,247Z"/><path class="cls-5" d="M12.9,341.9Z"/><path class="cls-5" d="M13.8,342.9l.4.3Z"/><path class="cls-5" d="M12.7,341.5l.2.4Z"/><path class="cls-5" d="M13,342.1c0-.1,0-.2-.1-.2S13,342,13,342.1Z"/><path class="cls-5" d="M12.9,341.9c-.1-.2-.2-.3-.1-.1S13,342.2,12.9,341.9Z"/><path class="cls-5" d="M391.7,294.5c-44-17.6-75.7-69.1-85.1-114.5-3.9-24.2,2.9-57-30.2-58.6-45.9,7.3-93.4,23.6-141.1,19.8-44.7-10.7-84.3-7.4-10.1,6.1,54.9,14.9,112.9-19,164.2-12.2,4.3,29.4,3.4,60.5,18,87.5,4.9,16.9,29.6,33.9,27,48.2C299.2,361,155.6,356.2,92.1,301.4c-18.3-25.5-2.4-55.9,3.8-81.2,10.2-5.9-23.3-26.6-7.4-73.5-20.4-33.6-19.7,63.2-2.3,71.2-13.7,25.9-21.6,59.2-6.5,86.3-9.3,1.4-67.9-3.3-60.2-16.4,3.7-28,65.6-134.3,46-148.5,3.5-7.1,10.6-33.2-4.2-20.2-16.1,39.6,6,21.5-3.9,42.4-4,27.1-77.6,142.3-33.9,147-2.9,13.8-16.2,9.3-20.6,22.3C-8,350.1,21.5,366.4,36.5,357.3c7.2-12.6,11.8-30.4,10.8-43.9,11.2,2.1,29.1,9.4,36.9-2.3C154.1,369.6,306.9,374,345,276.2c12.9,11.6,28.7,33.6,48,28.1C397,302.2,396.2,295.5,391.7,294.5Zm-359.4,44c-1.8,8.9-6.5,10.9-14.4,6.7a32.3,32.3,0,0,1-3.7-2h0c-.1-.1-.8-.5-.4-.3s-.6-.4-.8-.8h.1a.8.8,0,0,1-.4-.7h0c-.8-9.2,6.4-13.1,13.5-13.9,8.7-6.3,2.6-22.2,15.7-15.6C34.9,317.8,32.9,330.1,32.3,338.5Z"/><path class="cls-5" d="M348.1,95.5c.8.8.4.3,0,0Z"/><path class="cls-5" d="M447.7,175.9c7.6-15.1-14.1-7.8-21.8-9.3,6.1-5.7,22.4-25.7,5.2-26.5-13.2,7.7-37.3-5-45.1,6.8C361.2,90.5,337.3,26.5,271.7,5.2,201.9-11.8,107.8,19,62.1,71.5c-30.7,61.4,39.2,75.7,86.3,63.6,16.9-2.8,24-23.2,39.7-26.2,20.7,6.5,38.1,25,61.7,21.5,39.1,1.2,73-23.8,110.2-7.3,29.6,39,21.8,111.8,68.3,147.8-5,8.3-30.6,7-38.9,20-5.7,6.1,3.8,12.9,9.4,7.7-6.4,5.7,2.9,14,8,16.7,15,1.6,2.7-21.1-6.4-17.6,11.1-10.5,27.7-8.3,39.4-17.4,13.3-25.5-55.9-47.1-12.7-63.4C461.4,190.3,428.1,191,447.7,175.9ZM321.4,52.8c15.4,12.8.4,15.9-.7-.8Zm-11.5,5.4c11.3,49.1-39.8,48-73.6,41.7-23.2,2.5-21.1-30.5-14.5-44.3C238.9,44.1,305.3,29.8,309.9,58.2ZM208,13.6c15.5-1.7,31.6-2.4,47,.2-80.2,13-28.4,51.2-118.1,20.4A206.3,206.3,0,0,1,208,13.6ZM121.2,43.3c24.5-.3,47.6,16.7,71.4,14.9C219.1,31.8,265.1,8,299.9,32.3,266.4,29.8,203,26,205.8,73.7c-13.3-6.5-26.3-1.4-39.1,3.1C169,43.5,101.8,54.6,121.2,43.3Zm3.4,18.3c74.8,10.4.6,73.1-47.1,42.2C79.8,72.1,90.4,54.5,124.6,61.6Zm220.2,46.3c-52.9-5-92.8,32-148.5-7.7-18.6-6.4-29.2,13.3-43.1,21.4-25.4,10.4-73.8,9-87.3-10.6,25.8,17.6,69,16.9,93.1-4.4,6.9-16,14.5-23,33.3-24.1s12.7,24,32.4,28.2c22.2,1.8,45.2,7,67.4,2.7,25.5-6.4,27.1-38.5,56-17.9l-.3-.3C352.8,103.4,362.4,118.5,344.8,107.9Zm75.6,98.8c-26.7,27-24.2-39.4-32.9-54.8,14.6,9.4,44.1-7.5,22.8,15.5-2,3.6,0,7.5,3.7,8.9,14.1,3,13.8,3.2,2.1,11.9C406,205,441.9,191.8,420.4,206.7Z"/><path class="cls-5" d="M437.6,301.1c-6-.6-8.7-9-14.2-11.8s-11.4,5.5-6.7,9.9c11.7,12.8,21,10.4,10,30-.8,1.4-2.4,1.9-3.9,2.2-27.7,2.8-3.7-11.9-16.2-21-10.2-.7-11.1,15.9-13.4,23.5,3.8,10.7,24.2,9.9,34,8.9C440.9,338.5,451.4,309.8,437.6,301.1Z"/><path class="cls-5" d="M157.9,187.2c-16.5-33-82.4-36.8-18.5-3.6C105.9,212.2,150.5,263.3,157.9,187.2Z"/><path class="cls-5" d="M268.6,159.3c-21.1-13.8-83.9,34.4-36.6,22.7,4,54.2,41.7,37.3,29.5-10C260.7,169.1,283.3,172.1,268.6,159.3Z"/><path class="cls-5" d="M218.5,241.5c-19.6-18.9-49.8,1-64,17.8-5.5,10.9,12.8,5.1,18.1,5.7-6.2,5.1-11,12.2-11.8,20.4C176.9,297.4,239.2,269.4,218.5,241.5Zm-5.1,17.7c-14.2,21.7-69,23.6-20.7,5.3,5.3-.1,5.3-8.1,0-8.2C127.6,263.6,230,219.4,213.4,259.2Z"/><path class="cls-6" d="M150.9,182.2c-9.8,2.9-19.1-14.8-24.3-2.1-3.9,15.3-9.6,40.7,10.6,45.1S164.4,192.5,150.9,182.2Zm-7.4,20.7c0,6.4-3.2,11.2-6.8,3.6C134.5,194.4,145.3,185.8,143.5,202.9Z"/><path class="cls-6" d="M256.8,165.2c-12-.6-8.3,10.8-2.5,16.5,2.9,7.3,2.9,24.7-7.7,24.1-8.3-6.5.9-43.6-17.4-24.3C221,257.8,303.3,201.6,256.8,165.2Z"/></svg>